<svg version="1.1" viewBox="0.0 0.0 960.0 720.0" fill="none" stroke="none" stroke-linecap="square" stroke-miterlimit="10" xmlns:xlink="http://www.w3.org/1999/xlink" xmlns="http://www.w3.org/2000/svg"><clipPath id="p.0"><path d="m0 0l960.0 0l0 720.0l-960.0 0l0 -720.0z" clip-rule="nonzero"/></clipPath><g clip-path="url(#p.0)"><path fill="#000000" fill-opacity="0.0" d="m0 0l960.0 0l0 720.0l-960.0 0z" fill-rule="evenodd"/><path fill="#fffcfc" d="m480.0 510.61417l0 0c-112.5965 0 -203.87402 -67.43225 -203.87402 -150.61417l0 0c0 -83.181915 91.27753 -150.61417 203.87402 -150.61417l0 0c112.5965 0 203.87402 67.43225 203.87402 150.61417l0 0c0 39.945374 -21.479553 78.25467 -59.713318 106.500305l59.713318 0l0 44.11386z" fill-rule="evenodd"/><path stroke="#000000" stroke-width="1.0" stroke-linejoin="round" stroke-linecap="butt" d="m480.0 510.61417l0 0c-112.5965 0 -203.87402 -67.43225 -203.87402 -150.61417l0 0c0 -83.181915 91.27753 -150.61417 203.87402 -150.61417l0 0c112.5965 0 203.87402 67.43225 203.87402 150.61417l0 0c0 39.945374 -21.479553 78.25467 -59.713318 106.500305l59.713318 0l0 44.11386z" fill-rule="evenodd"/><path fill="#000000" fill-opacity="0.0" d="m415.2651 209.38583l117.38583 0l0 116.346436l-117.38583 0z" fill-rule="evenodd"/><path fill="#000000" d="m468.18698 267.49832l-2.640625 9.28125l5.84375 0q4.15625 0 4.15625 4.40625q0 2.234375 -1.078125 3.484375q-1.078125 1.234375 -3.078125 1.234375l-8.484375 0l-1.515625 5.125q-0.71875 2.3125 -2.359375 3.5625q-1.640625 1.234375 -3.484375 1.234375q-1.6875 0 -2.890625 -1.078125q-1.1875 -1.078125 -1.1875 -3.0q0 -0.796875 0.234375 -1.765625l1.203125 -4.078125l-9.359375 0l-1.515625 5.125q-0.71875 2.3125 -2.359375 3.5625q-1.640625 1.234375 -3.484375 1.234375q-1.6875 0 -2.890625 -1.078125q-1.1875 -1.078125 -1.1875 -3.0q0 -0.796875 0.234375 -1.765625l1.203125 -4.078125l-2.328125 0q-2.0 0 -3.125 -1.234375q-1.109375 -1.25 -1.109375 -3.484375q0 -2.15625 1.109375 -3.28125q1.125 -1.125 3.125 -1.125l4.96875 0l2.71875 -9.28125l-4.484375 0q-2.0 0 -3.125 -1.234375q-1.109375 -1.234375 -1.109375 -3.484375q0 -2.15625 1.109375 -3.265625q1.125 -1.125 3.125 -1.125l7.125 0l1.515625 -5.28125q0.640625 -2.328125 2.28125 -3.484375q1.640625 -1.15625 3.484375 -1.15625q1.84375 0 3.078125 1.0q1.234375 1.0 1.234375 2.671875q0 0.734375 -0.234375 1.453125l-1.359375 4.796875l9.359375 0l1.515625 -5.28125q0.640625 -2.328125 2.28125 -3.484375q1.640625 -1.15625 3.484375 -1.15625q1.84375 0 3.078125 1.0q1.234375 1.0 1.234375 2.671875q0 0.734375 -0.234375 1.453125l-1.359375 4.796875l3.671875 0q4.171875 0 4.171875 4.390625q0 2.25 -1.09375 3.484375q-1.078125 1.234375 -3.078125 1.234375l-6.390625 0zm-9.921875 0l-9.4375 0l-2.640625 9.28125l9.359375 0l2.71875 -9.28125zm37.68744 28.09375q-2.0 0 -3.53125 -1.203125q-1.515625 -1.203125 -1.515625 -3.765625l0.078125 -0.875q0.875 -8.25 2.109375 -17.15625q1.25 -8.921875 2.125 -13.71875l-6.234375 1.75l-0.953125 0.15625q-1.53125 0 -2.40625 -1.1875q-0.875 -1.203125 -0.875 -2.71875l0.078125 -0.734375q0.15625 -1.515625 0.953125 -2.46875q0.796875 -0.96875 3.078125 -1.921875q2.28125 -0.96875 6.84375 -2.078125l3.359375 -0.796875q1.84375 -0.40625 3.046875 -0.40625q2.3125 0 3.46875 1.203125q1.171875 1.203125 1.171875 3.359375q0 0.953125 -0.25 2.078125q-1.28125 6.234375 -4.875 35.515625q-0.640625 4.96875 -5.671875 4.96875z" fill-rule="nonzero"/><path fill="#000000" fill-opacity="0.0" d="m297.21783 296.1286l353.48035 0l0 174.51968l-353.48035 0z" fill-rule="evenodd"/><path fill="#000000" d="m462.9242 310.61987l0 8.5l-5.203125 0l0 26.96875l-10.515625 0l0 -26.96875l-5.1875 0l0 -8.5l20.90625 0zm22.036865 20.625q0 5.125 -0.25 7.375q-0.25 2.25 -1.65625 4.1875q-1.40625 1.9375 -3.734375 2.96875q-2.328125 1.015625 -5.375 1.015625q-2.875 0 -5.234375 -0.953125q-2.34375 -0.96875 -3.796875 -2.9375q-1.453125 -1.96875 -1.71875 -4.1875q-0.265625 -2.21875 -0.265625 -7.46875l0 -5.78125q0 -5.125 0.25 -7.375q0.265625 -2.265625 1.65625 -4.1875q1.40625 -1.9375 3.734375 -2.953125q2.34375 -1.03125 5.375 -1.03125q2.875 0 5.21875 0.96875q2.359375 0.953125 3.8125 2.921875q1.453125 1.953125 1.71875 4.1875q0.265625 2.21875 0.265625 7.46875l0 5.78125zm-10.515625 -11.09375q0 -2.171875 -0.125 -2.46875q-0.109375 -0.3125 -0.328125 -0.3125q-0.234375 0 -0.390625 0.234375q-0.15625 0.21875 -0.15625 2.546875l0 15.75q0 2.78125 0.109375 3.109375q0.125 0.328125 0.375 0.328125q0.25 0 0.375 -0.421875q0.140625 -0.421875 0.140625 -3.265625l0 -15.5zm12.041199 -9.53125l9.703125 0q3.703125 0 5.8125 0.625q2.109375 0.609375 3.234375 1.84375q1.125 1.234375 1.5 2.90625q0.390625 1.671875 0.390625 4.9375l0 2.9375q0 3.40625 -0.78125 5.125q-0.765625 1.71875 -2.78125 2.625q-2.015625 0.890625 -5.078125 0.890625l-1.484375 0l0 13.578125l-10.515625 0l0 -35.46875zm10.515625 7.515625l-0.46875 7.328125q0 -0.46875 0.234375 -0.46875q0.796875 0 1.03125 -0.296875q0.25 -0.3125 0.25 -1.890625l0 -2.78125q0 -1.34375 -0.28125 -1.609375q-0.28125 -0.28125 -0.765625 -0.28125z" fill-rule="nonzero"/><path fill="#000000" d="m350.21783 361.81985l0 35.46875l-9.21875 0l-3.90625 -16.203125l0.875 16.203125l-9.078125 0l0 -35.46875l8.84375 0l4.28125 16.0625l-0.875 -16.0625l9.078125 0zm1.7703857 0l16.375 0l0 8.5l-5.859375 0l0 4.640625l5.484375 0l0 8.171875l-5.484375 0l0 5.65625l6.4375 0l0 8.5l-16.953125 0l0 -35.46875zm37.443604 0l-3.25 15.765625l4.84375 19.703125l-9.890625 0q-1.65625 -5.734375 -2.0 -13.140625q0.53125 3.296875 -0.0625 6.90625l-0.9375 6.234375l-10.328125 0l3.3125 -19.671875l-3.359375 -15.796875l10.3125 0q0.328125 2.109375 1.015625 5.328125q0.546875 2.5 0.078125 2.609375l1.109375 -7.9375l9.15625 0zm20.265808 0l0 8.5l-5.203125 0l0 26.96875l-10.515625 0l0 -26.96875l-5.1875 0l0 -8.5l20.90625 0zm29.649597 14.15625l-10.53125 0l0 -3.9375q0 -2.75 -0.125 -3.109375q-0.125 -0.359375 -0.4375 -0.359375q-0.25 0 -0.390625 0.28125q-0.125 0.28125 -0.125 2.671875l0 16.1875q0 2.09375 0.140625 2.46875q0.15625 0.359375 0.4375 0.359375q0.390625 0 0.578125 -0.453125q0.203125 -0.46875 0.203125 -2.65625l0 -3.109375l-1.78125 0l0 -6.875l12.03125 0l0 19.84375l-7.03125 0l-0.375 -1.34375q-0.0625 0.25 -1.640625 1.15625q-1.5625 0.890625 -3.640625 0.890625q-2.421875 0 -4.5625 -1.171875q-2.125 -1.1875 -3.234375 -2.9375q-1.109375 -1.765625 -1.375 -3.625q-0.265625 -1.859375 -0.265625 -5.40625l0 -10.015625q0 -4.9375 0.5625 -7.328125q0.578125 -2.390625 3.296875 -4.390625q2.71875 -2.0 6.90625 -2.0q4.109375 0 6.875 1.734375q2.78125 1.71875 3.625 4.109375q0.859375 2.390625 0.859375 6.6875l0 2.328125zm1.6401062 -14.15625l16.375 0l0 8.5l-5.859375 0l0 4.640625l5.484375 0l0 8.171875l-5.484375 0l0 5.65625l6.4375 0l0 8.5l-16.953125 0l0 -35.46875zm39.052948 0l0 35.46875l-9.21875 0l-3.90625 -16.203125l0.875 16.203125l-9.078125 0l0 -35.46875l8.84375 0l4.28125 16.0625l-0.875 -16.0625l9.078125 0zm1.7704163 0l16.375 0l0 8.5l-5.859375 0l0 4.640625l5.484375 0l0 8.171875l-5.484375 0l0 5.65625l6.4375 0l0 8.5l-16.953125 0l0 -35.46875zm17.724823 0l7.078125 0q6.296875 0 8.703125 0.53125q2.421875 0.515625 3.984375 2.734375q1.5625 2.21875 1.5625 6.8125q0 4.21875 -1.171875 5.84375q-1.171875 1.625 -4.53125 1.078125q3.078125 -0.140625 4.125 1.140625q1.0625 1.265625 1.3125 2.328125q0.265625 1.046875 0.265625 5.234375l0 9.765625l-9.890625 0l0 -12.078125q0 -2.4375 -0.234375 -2.78125q-0.21875 -0.34375 -0.6875 -0.34375l0 15.203125l-10.515625 0l0 -35.46875zm10.515625 7.515625l0 5.75q0.34375 0 0.625 -0.203125q0.296875 -0.203125 0.296875 -1.96875l0 -1.84375q0 -1.203125 -0.3125 -1.46875q-0.296875 -0.265625 -0.609375 -0.265625zm29.223572 -7.515625l5.28125 35.46875l-10.796875 0l-0.4375 -6.0625l-1.53125 0l-0.53125 6.0625l-10.875 0l4.6875 -35.46875l14.203125 0zm-6.375 21.6875q-0.5625 -4.78125 -0.359375 -13.28125q-0.453125 9.765625 -0.71875 13.28125l1.078125 0zm30.677002 -21.6875l0 8.5l-5.203125 0l0 26.96875l-10.515625 0l0 -26.96875l-5.1875 0l0 -8.5l20.90625 0zm10.77124 0l0 35.46875l-10.515625 0l0 -35.46875l10.515625 0zm23.55426 20.625q0 5.125 -0.25 7.375q-0.25 2.25 -1.65625 4.1875q-1.40625 1.9375 -3.734375 2.96875q-2.328125 1.015625 -5.375 1.015625q-2.875 0 -5.234375 -0.953125q-2.34375 -0.96875 -3.796875 -2.9375q-1.453125 -1.96875 -1.71875 -4.1875q-0.265625 -2.21875 -0.265625 -7.46875l0 -5.78125q0 -5.125 0.25 -7.375q0.265625 -2.265625 1.65625 -4.1875q1.40625 -1.9375 3.734375 -2.953125q2.34375 -1.03125 5.375 -1.03125q2.875 0 5.21875 0.96875q2.359375 0.953125 3.8125 2.921875q1.453125 1.953125 1.71875 4.1875q0.265625 2.21875 0.265625 7.46875l0 5.78125zm-10.515625 -11.09375q0 -2.171875 -0.125 -2.46875q-0.109375 -0.3125 -0.328125 -0.3125q-0.234375 0 -0.390625 0.234375q-0.15625 0.21875 -0.15625 2.546875l0 15.75q0 2.78125 0.109375 3.109375q0.125 0.328125 0.375 0.328125q0.25 0 0.375 -0.421875q0.140625 -0.421875 0.140625 -3.265625l0 -15.5zm33.369324 -9.53125l0 35.46875l-9.21875 0l-3.90625 -16.203125l0.875 16.203125l-9.078125 0l0 -35.46875l8.84375 0l4.28125 16.0625l-0.875 -16.0625l9.078125 0z" fill-rule="nonzero"/><path fill="#000000" d="m384.2095 413.01984l7.4375 0q6.453125 0 8.875 0.640625q2.4375 0.625 3.765625 2.15625q1.328125 1.515625 1.65625 3.3125q0.328125 1.78125 0.328125 6.65625l0 11.8125q0 4.65625 -0.484375 6.375q-0.484375 1.71875 -1.734375 2.75q-1.25 1.015625 -2.96875 1.390625q-1.703125 0.375 -4.9375 0.375l-11.9375 0l0 -35.46875zm10.515625 7.515625l0 20.4375q0.515625 0 0.765625 -0.4375q0.25 -0.453125 0.25 -3.59375l0 -13.09375q0 -2.203125 -0.09375 -2.609375q-0.078125 -0.40625 -0.34375 -0.546875q-0.25 -0.15625 -0.578125 -0.15625zm13.061951 -7.515625l16.375 0l0 8.5l-5.859375 0l0 4.640625l5.484375 0l0 8.171875l-5.484375 0l0 5.65625l6.4375 0l0 8.5l-16.953125 0l0 -35.46875zm40.42798 0l-4.6875 35.46875l-14.828125 0l-5.328125 -35.46875l11.046875 0q1.703125 14.734375 1.5 24.421875q-0.1875 -9.796875 0.5625 -17.359375l0.6875 -7.0625l11.046875 0zm-0.37524414 0l16.375 0l0 8.5l-5.859375 0l0 4.640625l5.484375 0l0 8.171875l-5.484375 0l0 5.65625l6.4375 0l0 8.5l-16.953125 0l0 -35.46875zm28.240448 0l0 26.96875l5.328125 0l0 8.5l-15.84375 0l0 -35.46875l10.515625 0zm27.490845 20.625q0 5.125 -0.25 7.375q-0.25 2.25 -1.65625 4.1875q-1.40625 1.9375 -3.734375 2.96875q-2.328125 1.015625 -5.375 1.015625q-2.875 0 -5.234375 -0.953125q-2.34375 -0.96875 -3.796875 -2.9375q-1.453125 -1.96875 -1.71875 -4.1875q-0.265625 -2.21875 -0.265625 -7.46875l0 -5.78125q0 -5.125 0.25 -7.375q0.265625 -2.265625 1.65625 -4.1875q1.40625 -1.9375 3.734375 -2.953125q2.34375 -1.03125 5.375 -1.03125q2.875 0 5.21875 0.96875q2.359375 0.953125 3.8125 2.921875q1.453125 1.953125 1.71875 4.1875q0.265625 2.21875 0.265625 7.46875l0 5.78125zm-10.515625 -11.09375q0 -2.171875 -0.125 -2.46875q-0.109375 -0.3125 -0.328125 -0.3125q-0.234375 0 -0.390625 0.234375q-0.15625 0.21875 -0.15625 2.546875l0 15.75q0 2.78125 0.109375 3.109375q0.125 0.328125 0.375 0.328125q0.25 0 0.375 -0.421875q0.140625 -0.421875 0.140625 -3.265625l0 -15.5zm12.041168 -9.53125l9.7031555 0q3.703125 0 5.8125 0.625q2.109375 0.609375 3.234375 1.84375q1.125 1.234375 1.5 2.90625q0.390625 1.671875 0.390625 4.9375l0 2.9375q0 3.40625 -0.78125 5.125q-0.765625 1.71875 -2.78125 2.625q-2.015625 0.890625 -5.078125 0.890625l-1.484375 0l0 13.578125l-10.5156555 0l0 -35.46875zm10.5156555 7.515625l-0.46875 7.328125q0 -0.46875 0.234375 -0.46875q0.796875 0 1.03125 -0.296875q0.25 -0.3125 0.25 -1.890625l0 -2.78125q0 -1.34375 -0.28125 -1.609375q-0.28125 -0.28125 -0.765625 -0.28125zm10.895813 -7.515625l16.375 0l0 8.5l-5.859375 0l0 4.640625l5.484375 0l0 8.171875l-5.484375 0l0 5.65625l6.4375 0l0 8.5l-16.953125 0l0 -35.46875zm17.724792 0l7.078125 0q6.296875 0 8.703125 0.53125q2.421875 0.515625 3.984375 2.734375q1.5625 2.21875 1.5625 6.8125q0 4.21875 -1.171875 5.84375q-1.171875 1.625 -4.53125 1.078125q3.078125 -0.140625 4.125 1.140625q1.0625 1.265625 1.3125 2.328125q0.265625 1.046875 0.265625 5.234375l0 9.765625l-9.890625 0l0 -12.078125q0 -2.4375 -0.234375 -2.78125q-0.21875 -0.34375 -0.6875 -0.34375l0 15.203125l-10.515625 0l0 -35.46875zm10.515625 7.515625l0 5.75q0.34375 0 0.625 -0.203125q0.296875 -0.203125 0.296875 -1.96875l0 -1.84375q0 -1.203125 -0.3125 -1.46875q-0.296875 -0.265625 -0.609375 -0.265625z" fill-rule="nonzero"/></g></svg>