<svg version="1.1" viewBox="0.0 0.0 960.0 720.0" fill="none" stroke="none" stroke-linecap="square" stroke-miterlimit="10" xmlns:xlink="http://www.w3.org/1999/xlink" xmlns="http://www.w3.org/2000/svg"><clipPath id="p.0"><path d="m0 0l960.0 0l0 720.0l-960.0 0l0 -720.0z" clip-rule="nonzero"/></clipPath><g clip-path="url(#p.0)"><path fill="#000000" fill-opacity="0.0" d="m0 0l960.0 0l0 720.0l-960.0 0z" fill-rule="evenodd"/><path fill="#fffcfc" d="m480.0 510.61417l0 0c-112.5965 0 -203.87402 -67.43225 -203.87402 -150.61417l0 0c0 -83.181915 91.27753 -150.61417 203.87402 -150.61417l0 0c112.5965 0 203.87402 67.43225 203.87402 150.61417l0 0c0 39.945374 -21.479553 78.25467 -59.713318 106.500305l59.713318 0l0 44.11386z" fill-rule="evenodd"/><path stroke="#000000" stroke-width="1.0" stroke-linejoin="round" stroke-linecap="butt" d="m480.0 510.61417l0 0c-112.5965 0 -203.87402 -67.43225 -203.87402 -150.61417l0 0c0 -83.181915 91.27753 -150.61417 203.87402 -150.61417l0 0c112.5965 0 203.87402 67.43225 203.87402 150.61417l0 0c0 39.945374 -21.479553 78.25467 -59.713318 106.500305l59.713318 0l0 44.11386z" fill-rule="evenodd"/><path fill="#000000" fill-opacity="0.0" d="m415.2651 209.38583l117.38583 0l0 116.346436l-117.38583 0z" fill-rule="evenodd"/><path fill="#9bb7cc" d="m468.18698 267.49832l-2.640625 9.28125l5.84375 0q4.15625 0 4.15625 4.40625q0 2.234375 -1.078125 3.484375q-1.078125 1.234375 -3.078125 1.234375l-8.484375 0l-1.515625 5.125q-0.71875 2.3125 -2.359375 3.5625q-1.640625 1.234375 -3.484375 1.234375q-1.6875 0 -2.890625 -1.078125q-1.1875 -1.078125 -1.1875 -3.0q0 -0.796875 0.234375 -1.765625l1.203125 -4.078125l-9.359375 0l-1.515625 5.125q-0.71875 2.3125 -2.359375 3.5625q-1.640625 1.234375 -3.484375 1.234375q-1.6875 0 -2.890625 -1.078125q-1.1875 -1.078125 -1.1875 -3.0q0 -0.796875 0.234375 -1.765625l1.203125 -4.078125l-2.328125 0q-2.0 0 -3.125 -1.234375q-1.109375 -1.25 -1.109375 -3.484375q0 -2.15625 1.109375 -3.28125q1.125 -1.125 3.125 -1.125l4.96875 0l2.71875 -9.28125l-4.484375 0q-2.0 0 -3.125 -1.234375q-1.109375 -1.234375 -1.109375 -3.484375q0 -2.15625 1.109375 -3.265625q1.125 -1.125 3.125 -1.125l7.125 0l1.515625 -5.28125q0.640625 -2.328125 2.28125 -3.484375q1.640625 -1.15625 3.484375 -1.15625q1.84375 0 3.078125 1.0q1.234375 1.0 1.234375 2.671875q0 0.734375 -0.234375 1.453125l-1.359375 4.796875l9.359375 0l1.515625 -5.28125q0.640625 -2.328125 2.28125 -3.484375q1.640625 -1.15625 3.484375 -1.15625q1.84375 0 3.078125 1.0q1.234375 1.0 1.234375 2.671875q0 0.734375 -0.234375 1.453125l-1.359375 4.796875l3.671875 0q4.171875 0 4.171875 4.390625q0 2.25 -1.09375 3.484375q-1.078125 1.234375 -3.078125 1.234375l-6.390625 0zm-9.921875 0l-9.4375 0l-2.640625 9.28125l9.359375 0l2.71875 -9.28125zm37.68744 28.09375q-2.0 0 -3.53125 -1.203125q-1.515625 -1.203125 -1.515625 -3.765625l0.078125 -0.875q0.875 -8.25 2.109375 -17.15625q1.25 -8.921875 2.125 -13.71875l-6.234375 1.75l-0.953125 0.15625q-1.53125 0 -2.40625 -1.1875q-0.875 -1.203125 -0.875 -2.71875l0.078125 -0.734375q0.15625 -1.515625 0.953125 -2.46875q0.796875 -0.96875 3.078125 -1.921875q2.28125 -0.96875 6.84375 -2.078125l3.359375 -0.796875q1.84375 -0.40625 3.046875 -0.40625q2.3125 0 3.46875 1.203125q1.171875 1.203125 1.171875 3.359375q0 0.953125 -0.25 2.078125q-1.28125 6.234375 -4.875 35.515625q-0.640625 4.96875 -5.671875 4.96875z" fill-rule="nonzero"/><path fill="#000000" fill-opacity="0.0" d="m297.21783 296.1286l353.48035 0l0 174.51968l-353.48035 0z" fill-rule="evenodd"/><path fill="#000000" d="m462.9242 310.61987l0 8.5l-5.203125 0l0 26.96875l-10.515625 0l0 -26.96875l-5.1875 0l0 -8.5l20.90625 0zm22.036865 20.625q0 5.125 -0.25 7.375q-0.25 2.25 -1.65625 4.1875q-1.40625 1.9375 -3.734375 2.96875q-2.328125 1.015625 -5.375 1.015625q-2.875 0 -5.234375 -0.953125q-2.34375 -0.96875 -3.796875 -2.9375q-1.453125 -1.96875 -1.71875 -4.1875q-0.265625 -2.21875 -0.265625 -7.46875l0 -5.78125q0 -5.125 0.25 -7.375q0.265625 -2.265625 1.65625 -4.1875q1.40625 -1.9375 3.734375 -2.953125q2.34375 -1.03125 5.375 -1.03125q2.875 0 5.21875 0.96875q2.359375 0.953125 3.8125 2.921875q1.453125 1.953125 1.71875 4.1875q0.265625 2.21875 0.265625 7.46875l0 5.78125zm-10.515625 -11.09375q0 -2.171875 -0.125 -2.46875q-0.109375 -0.3125 -0.328125 -0.3125q-0.234375 0 -0.390625 0.234375q-0.15625 0.21875 -0.15625 2.546875l0 15.75q0 2.78125 0.109375 3.109375q0.125 0.328125 0.375 0.328125q0.25 0 0.375 -0.421875q0.140625 -0.421875 0.140625 -3.265625l0 -15.5zm12.041199 -9.53125l9.703125 0q3.703125 0 5.8125 0.625q2.109375 0.609375 3.234375 1.84375q1.125 1.234375 1.5 2.90625q0.390625 1.671875 0.390625 4.9375l0 2.9375q0 3.40625 -0.78125 5.125q-0.765625 1.71875 -2.78125 2.625q-2.015625 0.890625 -5.078125 0.890625l-1.484375 0l0 13.578125l-10.515625 0l0 -35.46875zm10.515625 7.515625l-0.46875 7.328125q0 -0.46875 0.234375 -0.46875q0.796875 0 1.03125 -0.296875q0.25 -0.3125 0.25 -1.890625l0 -2.78125q0 -1.34375 -0.28125 -1.609375q-0.28125 -0.28125 -0.765625 -0.28125z" fill-rule="nonzero"/><path fill="#a1541a" d="m357.59283 361.81985l-7.546875 35.46875l-9.1875 0l-0.5 -16.203125l-2.5625 16.203125l-9.109375 0l7.546875 -35.46875l8.8125 0l0.90625 16.0625l2.53125 -16.0625l9.109375 0zm1.7391357 0l16.40625 0l-1.8125 8.5l-5.859375 0l-0.984375 4.640625l5.484375 0l-1.734375 8.171875l-5.484375 0l-1.203125 5.65625l6.4375 0l-1.8125 8.5l-16.984375 0l7.546875 -35.46875zm37.506104 0l-6.671875 15.9375l0.65625 19.53125l-9.84375 0q-0.4375 -5.90625 0.765625 -13.140625q-0.203125 3.46875 -1.53125 7.0625l-2.21875 6.078125l-10.421875 0l7.5625 -19.84375l0 -15.625l10.28125 0q-0.125 2.296875 -0.125 5.515625q0.015625 2.5 -0.484375 2.5l2.78125 -8.015625l9.25 0zm20.234558 0l-1.8125 8.5l-5.203125 0l-5.734375 26.96875l-10.546875 0l5.734375 -26.96875l-5.1875 0l1.8125 -8.5l20.9375 0zm26.633972 14.15625l-10.5625 0l0.875 -4.125q0.578125 -2.734375 0.546875 -3.0q-0.03125 -0.28125 -0.203125 -0.28125q-0.34375 0 -0.59375 0.359375q-0.234375 0.359375 -0.75 2.78125l-3.453125 16.1875q-0.4375 2.09375 -0.390625 2.375q0.0625 0.265625 0.203125 0.265625q0.484375 0 0.828125 -0.53125q0.34375 -0.546875 0.8125 -2.765625l0.625 -2.921875l-1.78125 0l1.46875 -6.875l12.0625 0l-4.21875 19.84375l-7.015625 0l-0.09375 -1.234375q-0.078125 0.1875 -1.796875 1.0625q-1.71875 0.875 -3.765625 0.875q-2.453125 0 -4.375 -1.203125q-1.921875 -1.21875 -2.6875 -3.03125q-0.75 -1.8125 -0.625 -3.671875q0.125 -1.875 0.875 -5.421875l2.140625 -10.015625q1.03125 -4.921875 2.09375 -7.265625q1.078125 -2.34375 4.140625 -4.296875q3.078125 -1.96875 7.234375 -1.96875q4.140625 0 6.609375 1.765625q2.46875 1.765625 2.8125 4.21875q0.359375 2.4375 -0.546875 6.734375l-0.46875 2.140625zm4.624481 -14.15625l16.40625 0l-1.8125 8.5l-5.859375 0l-0.984375 4.640625l5.484375 0l-1.734375 8.171875l-5.484375 0l-1.203125 5.65625l6.4375 0l-1.8125 8.5l-16.984375 0l7.546875 -35.46875zm39.084198 0l-7.546875 35.46875l-9.1875 0l-0.5 -16.203125l-2.5625 16.203125l-9.109375 0l7.546875 -35.46875l8.8125 0l0.90625 16.0625l2.53125 -16.0625l9.109375 0zm1.7391663 0l16.40625 0l-1.8125 8.5l-5.859375 0l-0.984375 4.640625l5.484375 0l-1.734375 8.171875l-5.484375 0l-1.203125 5.65625l6.4375 0l-1.8125 8.5l-16.984375 0l7.546875 -35.46875zm17.724823 0l6.90625 0q6.296875 0 8.65625 0.53125q2.359375 0.53125 3.46875 2.828125q1.125 2.296875 0.140625 6.90625q-0.875 4.171875 -2.34375 5.734375q-1.46875 1.5625 -4.8125 1.0q3.03125 -0.125 3.84375 1.21875q0.828125 1.34375 0.84375 2.421875q0.03125 1.0625 -0.84375 5.25l-2.046875 9.578125l-9.921875 0l2.59375 -12.265625q0.515625 -2.421875 0.40625 -2.671875q-0.109375 -0.265625 -0.65625 -0.265625l-3.234375 15.203125l-10.546875 0l7.546875 -35.46875zm8.9375 7.515625l-1.21875 5.75q0.171875 0 0.578125 -0.25q0.40625 -0.25 0.8125 -2.109375l0.390625 -1.84375q0.25 -1.15625 0.0625 -1.34375q-0.1875 -0.203125 -0.625 -0.203125zm30.817322 -7.515625l-2.265625 35.46875l-10.796875 0l0.84375 -6.0625l-1.484375 0l-1.8125 6.0625l-10.96875 0l12.234375 -35.46875l14.25 0zm-10.984375 21.6875q0.46875 -4.953125 2.453125 -13.28125q-2.546875 9.9375 -3.5 13.28125l1.046875 0zm35.302002 -21.6875l-1.8125 8.5l-5.203125 0l-5.734375 26.96875l-10.546875 0l5.734375 -26.96875l-5.1875 0l1.8125 -8.5l20.9375 0zm10.77124 0l-7.546875 35.46875l-10.546875 0l7.546875 -35.46875l10.546875 0zm19.132385 20.8125q-1.09375 5.109375 -1.8125 7.34375q-0.71875 2.21875 -2.5 4.109375q-1.765625 1.890625 -4.28125 2.90625q-2.5 1.0 -5.53125 1.0q-2.890625 0 -5.09375 -0.984375q-2.1875 -0.984375 -3.25 -3.0q-1.046875 -2.03125 -0.84375 -4.25q0.203125 -2.234375 1.3125 -7.5l1.234375 -5.78125q1.09375 -5.125 1.8125 -7.34375q0.734375 -2.234375 2.5 -4.109375q1.765625 -1.890625 4.265625 -2.890625q2.515625 -1.015625 5.53125 -1.015625q2.890625 0 5.078125 0.984375q2.1875 0.984375 3.25 3.0q1.078125 2.015625 0.859375 4.25q-0.203125 2.234375 -1.296875 7.5l-1.234375 5.78125zm-8.125 -11.46875q0.46875 -2.171875 0.421875 -2.375q-0.03125 -0.21875 -0.109375 -0.21875q-0.296875 0 -0.578125 0.296875q-0.265625 0.296875 -0.765625 2.671875l-3.34375 15.75q-0.59375 2.78125 -0.5625 3.015625q0.03125 0.234375 0.140625 0.234375q0.359375 0 0.625 -0.5q0.265625 -0.5 0.875 -3.375l3.296875 -15.5zm35.400574 -9.34375l-7.546875 35.46875l-9.1875 0l-0.5 -16.203125l-2.5625 16.203125l-9.109375 0l7.546875 -35.46875l8.8125 0l0.90625 16.0625l2.53125 -16.0625l9.109375 0z" fill-rule="nonzero"/><path fill="#000000" d="m384.2095 413.01984l7.4375 0q6.453125 0 8.875 0.640625q2.4375 0.625 3.765625 2.15625q1.328125 1.515625 1.65625 3.3125q0.328125 1.78125 0.328125 6.65625l0 11.8125q0 4.65625 -0.484375 6.375q-0.484375 1.71875 -1.734375 2.75q-1.25 1.015625 -2.96875 1.390625q-1.703125 0.375 -4.9375 0.375l-11.9375 0l0 -35.46875zm10.515625 7.515625l0 20.4375q0.515625 0 0.765625 -0.4375q0.25 -0.453125 0.25 -3.59375l0 -13.09375q0 -2.203125 -0.09375 -2.609375q-0.078125 -0.40625 -0.34375 -0.546875q-0.25 -0.15625 -0.578125 -0.15625zm13.061951 -7.515625l16.375 0l0 8.5l-5.859375 0l0 4.640625l5.484375 0l0 8.171875l-5.484375 0l0 5.65625l6.4375 0l0 8.5l-16.953125 0l0 -35.46875zm40.42798 0l-4.6875 35.46875l-14.828125 0l-5.328125 -35.46875l11.046875 0q1.703125 14.734375 1.5 24.421875q-0.1875 -9.796875 0.5625 -17.359375l0.6875 -7.0625l11.046875 0zm-0.37524414 0l16.375 0l0 8.5l-5.859375 0l0 4.640625l5.484375 0l0 8.171875l-5.484375 0l0 5.65625l6.4375 0l0 8.5l-16.953125 0l0 -35.46875zm28.240448 0l0 26.96875l5.328125 0l0 8.5l-15.84375 0l0 -35.46875l10.515625 0zm27.490845 20.625q0 5.125 -0.25 7.375q-0.25 2.25 -1.65625 4.1875q-1.40625 1.9375 -3.734375 2.96875q-2.328125 1.015625 -5.375 1.015625q-2.875 0 -5.234375 -0.953125q-2.34375 -0.96875 -3.796875 -2.9375q-1.453125 -1.96875 -1.71875 -4.1875q-0.265625 -2.21875 -0.265625 -7.46875l0 -5.78125q0 -5.125 0.25 -7.375q0.265625 -2.265625 1.65625 -4.1875q1.40625 -1.9375 3.734375 -2.953125q2.34375 -1.03125 5.375 -1.03125q2.875 0 5.21875 0.96875q2.359375 0.953125 3.8125 2.921875q1.453125 1.953125 1.71875 4.1875q0.265625 2.21875 0.265625 7.46875l0 5.78125zm-10.515625 -11.09375q0 -2.171875 -0.125 -2.46875q-0.109375 -0.3125 -0.328125 -0.3125q-0.234375 0 -0.390625 0.234375q-0.15625 0.21875 -0.15625 2.546875l0 15.75q0 2.78125 0.109375 3.109375q0.125 0.328125 0.375 0.328125q0.25 0 0.375 -0.421875q0.140625 -0.421875 0.140625 -3.265625l0 -15.5zm12.041168 -9.53125l9.7031555 0q3.703125 0 5.8125 0.625q2.109375 0.609375 3.234375 1.84375q1.125 1.234375 1.5 2.90625q0.390625 1.671875 0.390625 4.9375l0 2.9375q0 3.40625 -0.78125 5.125q-0.765625 1.71875 -2.78125 2.625q-2.015625 0.890625 -5.078125 0.890625l-1.484375 0l0 13.578125l-10.5156555 0l0 -35.46875zm10.5156555 7.515625l-0.46875 7.328125q0 -0.46875 0.234375 -0.46875q0.796875 0 1.03125 -0.296875q0.25 -0.3125 0.25 -1.890625l0 -2.78125q0 -1.34375 -0.28125 -1.609375q-0.28125 -0.28125 -0.765625 -0.28125zm10.895813 -7.515625l16.375 0l0 8.5l-5.859375 0l0 4.640625l5.484375 0l0 8.171875l-5.484375 0l0 5.65625l6.4375 0l0 8.5l-16.953125 0l0 -35.46875zm17.724792 0l7.078125 0q6.296875 0 8.703125 0.53125q2.421875 0.515625 3.984375 2.734375q1.5625 2.21875 1.5625 6.8125q0 4.21875 -1.171875 5.84375q-1.171875 1.625 -4.53125 1.078125q3.078125 -0.140625 4.125 1.140625q1.0625 1.265625 1.3125 2.328125q0.265625 1.046875 0.265625 5.234375l0 9.765625l-9.890625 0l0 -12.078125q0 -2.4375 -0.234375 -2.78125q-0.21875 -0.34375 -0.6875 -0.34375l0 15.203125l-10.515625 0l0 -35.46875zm10.515625 7.515625l0 5.75q0.34375 0 0.625 -0.203125q0.296875 -0.203125 0.296875 -1.96875l0 -1.84375q0 -1.203125 -0.3125 -1.46875q-0.296875 -0.265625 -0.609375 -0.265625z" fill-rule="nonzero"/></g></svg>