<svg version="1.1" viewBox="0.0 0.0 960.0 720.0" fill="none" stroke="none" stroke-linecap="square" stroke-miterlimit="10" xmlns:xlink="http://www.w3.org/1999/xlink" xmlns="http://www.w3.org/2000/svg"><clipPath id="p.0"><path d="m0 0l960.0 0l0 720.0l-960.0 0l0 -720.0z" clip-rule="nonzero"/></clipPath><g clip-path="url(#p.0)"><path fill="#000000" fill-opacity="0.0" d="m0 0l960.0 0l0 720.0l-960.0 0z" fill-rule="evenodd"/><path fill="#fffcfc" d="m480.0 715.1811l0 0c-265.09668 0 -480.0 -160.09875 -480.0 -357.59055l0 0c0 -197.4918 214.90332 -357.59055 480.0 -357.59055l0 0c265.09668 0 480.0 160.09874 480.0 357.59055l0 0c0 94.83893 -50.57129 185.79349 -140.58875 252.8547l140.58875 0l0 104.73584z" fill-rule="evenodd"/><path stroke="#000000" stroke-width="1.0" stroke-linejoin="round" stroke-linecap="butt" d="m480.0 715.1811l0 0c-265.09668 0 -480.0 -160.09875 -480.0 -357.59055l0 0c0 -197.4918 214.90332 -357.59055 480.0 -357.59055l0 0c265.09668 0 480.0 160.09874 480.0 357.59055l0 0c0 94.83893 -50.57129 185.79349 -140.58875 252.8547l140.58875 0l0 104.73584z" fill-rule="evenodd"/><path fill="#000000" fill-opacity="0.0" d="m367.74802 18.312336l224.50394 0l0 237.5433l-224.50394 0z" fill-rule="evenodd"/><path fill="#ffd966" d="m391.68552 94.81546l22.15625 0l5.53125 -27.953125l16.796875 0l-5.453125 27.953125l30.84375 0l5.546875 -27.953125l16.78125 0l-5.453125 27.953125l19.78125 0l-3.4375 17.5l-19.765625 0l-7.125 36.46875l21.015625 0l-3.265625 17.140625l-21.09375 0l-6.578125 34.1875l-16.96875 0l6.671875 -34.1875l-30.84375 0l-6.59375 34.1875l-17.3125 0l6.765625 -34.1875l-21.171875 0l3.59375 -17.140625l21.015625 0l7.203125 -36.46875l-22.234375 0l3.59375 -17.5zm28.484375 53.96875l30.84375 0l7.125 -36.46875l-30.859375 0l-7.109375 36.46875zm102.91214 36.203125l12.921875 0l0 -97.46875l-26.984406 14.6875l0 -18.375l37.09378 -20.734371l7.03125 0l0 121.890625l13.09375 0l0 15.125l-43.15625 0l0 -15.125z" fill-rule="nonzero"/><path fill="#000000" fill-opacity="0.0" d="m28.425198 221.4042l903.14966 0l0 329.66928l-903.14966 0z" fill-rule="evenodd"/><path fill="#000000" d="m402.8442 300.9023l6.53125 0l0 -40.703125l-7.65625 0l0 8.171875l-13.59375 0l0 -19.20311l57.453125 0l0 19.20311l-13.65625 0l0 -8.171875l-8.703125 0l0 40.703125l6.65625 0l0 11.421875l-27.03125 0l0 -11.421875zm77.32971 12.546875q-4.296875 0 -8.21875 -1.15625q-3.90625 -1.171875 -7.3125 -3.296875q-3.390625 -2.125 -6.171875 -5.109375q-2.765625 -2.984375 -4.71875 -6.625q-1.953125 -3.640625 -3.046875 -7.8125q-1.078125 -4.171875 -1.078125 -8.703125q0 -4.546875 1.078125 -8.734375q1.09375 -4.1875 3.046875 -7.828125q1.953125 -3.640625 4.71875 -6.625q2.78125 -2.9843597 6.171875 -5.1093597q3.40625 -2.125 7.3125 -3.28125q3.921875 -1.171875 8.21875 -1.171875q4.28125 0 8.21875 1.171875q3.9375 1.15625 7.328125 3.28125q3.40625 2.125 6.171875 5.1093597q2.765625 2.984375 4.75 6.625q1.984375 3.640625 3.0625 7.828125q1.078125 4.1875 1.078125 8.734375q0 4.5 -1.078125 8.6875q-1.078125 4.1875 -3.0625 7.828125q-1.984375 3.640625 -4.75 6.625q-2.765625 2.984375 -6.171875 5.109375q-3.390625 2.125 -7.328125 3.296875q-3.9375 1.15625 -8.21875 1.15625zm0 -13.078125q3.625 0 6.640625 -1.5625q3.015625 -1.5625 5.171875 -4.25q2.171875 -2.6875 3.359375 -6.25q1.1875 -3.5625 1.1875 -7.5625q0 -4.046875 -1.203125 -7.625q-1.203125 -3.578125 -3.390625 -6.265625q-2.1875 -2.6875 -5.1875 -4.25q-3.0 -1.5625 -6.578125 -1.5625q-3.59375 0 -6.59375 1.5625q-3.0 1.5625 -5.171875 4.25q-2.15625 2.6875 -3.390625 6.265625q-1.21875 3.578125 -1.21875 7.625q0 4.0 1.21875 7.5625q1.234375 3.5625 3.390625 6.25q2.171875 2.6875 5.171875 4.25q3.0 1.5625 6.59375 1.5625zm38.90207 -51.20311l29.171875 0q4.875 0 8.953125 1.515625q4.078125 1.515625 7.03125 4.109375q2.96875 2.5781097 4.625 5.9531097q1.671875 3.375 1.671875 7.046875q0 4.40625 -1.3125 8.265625q-1.3125 3.84375 -4.0625 6.6875q-2.75 2.828125 -6.953125 4.484375q-4.203125 1.640625 -9.953125 1.640625l-8.796875 0l0 12.03125l5.796875 0l0 11.421875l-26.171875 0l0 -11.421875l6.546875 0l0 -40.28125l-6.546875 0l0 -11.45311zm20.375 11.45311l0 16.953125l5.71875 0q4.75 0 7.53125 -2.0q2.796875 -2.0 2.796875 -6.328125q0 -4.046875 -2.625 -6.328125q-2.625 -2.296875 -7.703125 -2.296875l-5.71875 0z" fill-rule="nonzero"/><path fill="#ff5e5b" d="m110.658806 414.72418l11.609375 -54.953125l13.640633 0l14.59375 29.09375l6.140625 -29.09375l16.046875 0l-11.609375 54.953125l-13.734375 0l-14.5 -29.015625l-6.1406326 29.015625l-16.046875 0zm58.19378 0l11.609375 -54.953125l41.640625 0l-2.5625 12.296875l-25.609375 0l-1.953125 8.953125l22.4375 0l-2.640625 12.453125l-22.4375 0l-1.890625 8.96875l25.609375 0l-2.5625 12.28125l-41.640625 0zm42.914917 0l26.203125 -27.8125l-13.828125 -27.140625l19.109375 0l7.0 14.421875l13.23436 -14.421875l19.109375 0l-25.265625 27.140625l14.421875 27.8125l-19.35936 0l-7.515625 -14.9375l-13.734375 14.9375l-19.375 0zm78.080185 0l9.125 -43.0l-15.4375 0l2.46875 -11.953125l46.9375 0l-2.484375 11.953125l-15.4375 0l-9.125 43.0l-16.046875 0zm81.31445 0.859375q-7.5 0 -13.09375 -2.390625q-5.59375 -2.390625 -8.671875 -7.03125q-3.0625 -4.65625 -3.0625 -11.40625q0 -3.328125 0.765625 -7.0q2.984375 -13.8125 12.03125 -21.3125q9.046875 -7.515625 25.265625 -7.515625q5.109375 0 9.125 0.59375q4.015625 0.59375 7.421875 1.78125l-2.984375 13.75q-3.421875 -1.453125 -7.3125 -1.96875q-3.875 -0.515625 -8.046875 -0.515625q-7.34375 0 -12.375 3.59375q-5.03125 3.578125 -6.734375 11.59375q-0.78125 3.328125 -0.78125 5.8125q0 4.34375 2.609375 6.359375q2.609375 2.0 8.75 2.0q2.21875 0 4.21875 -0.296875q2.0 -0.296875 3.890625 -0.8125l1.703125 -8.015625l-10.921875 0l2.125 -9.90625l24.328125 0l-5.890625 27.640625q-3.578125 1.96875 -9.171875 3.515625q-5.59375 1.53125 -13.1875 1.53125zm27.56424 -0.859375l11.609375 -54.953125l41.640625 0l-2.5625 12.296875l-25.609375 0l-1.953125 8.953125l22.4375 0l-2.640625 12.453125l-22.4375 0l-1.890625 8.96875l25.609375 0l-2.5625 12.28125l-41.640625 0zm46.845123 0l11.609375 -54.953125l13.640625 0l14.59375 29.09375l6.140625 -29.09375l16.046875 0l-11.609375 54.953125l-13.734375 0l-14.5 -29.015625l-6.140625 29.015625l-16.046875 0zm58.193756 0l11.609375 -54.953125l41.640625 0l-2.5625 12.296875l-25.609375 0l-1.953125 8.953125l22.4375 0l-2.640625 12.453125l-22.4375 0l-1.890625 8.96875l25.609375 0l-2.5625 12.28125l-41.640625 0zm46.845093 0l11.609375 -54.953125l28.578125 0q7.84375 0 11.9375 3.96875q4.109375 3.96875 4.109375 10.53125q0 2.3125 -0.515625 5.046875q-1.1875 5.546875 -4.859375 9.765625q-3.671875 4.21875 -8.796875 6.4375q0.859375 0.765625 1.28125 1.84375q0.421875 1.0625 0.859375 2.9375l3.328125 14.421875l-16.734375 0l-3.0625 -13.21875q-0.34375 -1.546875 -1.203125 -2.1875q-0.84375 -0.640625 -2.640625 -0.640625l-4.515625 0l-3.328125 16.046875l-16.046875 0zm22.015625 -28.328125l8.453125 0q7.328125 0 8.859375 -7.078125q0.171875 -0.765625 0.25 -1.453125q0.09375 -0.6875 0.09375 -1.28125q0 -2.21875 -1.28125 -3.359375q-1.28125 -1.15625 -4.34375 -1.15625l-8.96875 0l-3.0625 14.328125zm26.61621 28.328125l32.6875 -54.953125l16.984375 0l9.46875 54.953125l-16.734375 0l-1.953125 -11.6875l-16.734375 0l-6.984375 11.6875l-16.734375 0zm28.25 -23.203125l12.28125 0l-2.734375 -16.140625l-9.546875 16.140625zm41.72351 23.203125l9.125 -43.0l-15.4375 0l2.46875 -11.953125l46.9375 0l-2.484375 11.953125l-15.4375 0l-9.125 43.0l-16.046875 0zm35.83789 0l11.609375 -54.953125l16.03125 0l-11.59375 54.953125l-16.046875 0zm49.83777 0.859375q-10.59375 0 -16.828125 -4.65625q-6.21875 -4.65625 -6.21875 -14.796875q0 -3.84375 1.03125 -8.71875q2.21875 -10.234375 6.5625 -16.5q4.359375 -6.28125 11.21875 -9.125q6.875 -2.859375 16.34375 -2.859375q10.921875 0 16.96875 4.734375q6.0625 4.734375 6.0625 14.796875q0 3.921875 -1.015625 8.953125q-3.15625 14.859375 -11.484375 21.515625q-8.3125 6.65625 -22.640625 6.65625zm2.890625 -13.65625q6.140625 0 9.6875 -3.453125q3.546875 -3.453125 5.15625 -11.0625q0.4375 -2.046875 0.640625 -3.78125q0.21875 -1.75 0.21875 -3.125q0 -4.265625 -2.171875 -6.09375q-2.171875 -1.84375 -7.21875 -1.84375q-6.140625 0 -9.59375 3.375q-3.453125 3.375 -5.25 11.46875q-0.421875 2.0625 -0.6875 3.765625q-0.25 1.703125 -0.25 3.15625q0 4.09375 2.25 5.84375q2.265625 1.75 7.21875 1.75zm31.490356 12.796875l11.609375 -54.953125l13.640625 0l14.59375 29.09375l6.140625 -29.09375l16.046875 0l-11.609375 54.953125l-13.734375 0l-14.5 -29.015625l-6.140625 29.015625l-16.046875 0z" fill-rule="nonzero"/><path fill="#000000" d="m211.89679 453.96793l24.25 0q4.328125 0 8.296875 1.125q3.984375 1.125 7.421875 3.171875q3.4375 2.03125 6.25 4.890625q2.8125 2.84375 4.8125 6.34375q2.0 3.5 3.078125 7.546875q1.09375 4.03125 1.09375 8.40625q0 4.375 -1.09375 8.421875q-1.078125 4.046875 -3.078125 7.5625q-2.0 3.515625 -4.8125 6.421875q-2.8125 2.890625 -6.25 4.9530945q-3.4375 2.0625 -7.421875 3.1875q-3.96875 1.125 -8.296875 1.125l-24.25 0l0 -11.4218445l5.03125 0l0 -40.28125l-5.03125 0l0 -11.453125zm18.875 11.453125l0 40.28125l5.28125 0q3.375 0 6.375 -1.578125q3.0 -1.578125 5.203125 -4.3125q2.21875 -2.734375 3.5 -6.421875q1.296875 -3.6875 1.296875 -7.9375q0 -4.203125 -1.296875 -7.859375q-1.28125 -3.671875 -3.5 -6.375q-2.203125 -2.71875 -5.203125 -4.25q-3.0 -1.546875 -6.375 -1.546875l-5.28125 0zm43.569183 -11.453125l50.25 0l0 21.53125l-13.578125 0l0 -8.953125l-16.203125 0l0 12.453125l12.53125 0l0 12.078125l-12.53125 0l0 14.625l16.203125 0l0 -11.203125l13.578125 0l0 22.62497l-50.25 0l0 -11.4218445l6.625 0l0 -39.15625l-6.625 0l0 -12.578125zm88.62149 0l27.046875 0l0 11.453125l-5.625 0l-16.875 51.703094l-17.078125 0l-16.375 -51.703094l-6.09375 0l0 -11.453125l27.09375 0l0 11.453125l-6.75 0l11.0 35.828125l10.953125 -35.828125l-7.296875 0l0 -11.453125zm32.621124 0l50.25 0l0 21.53125l-13.578125 0l0 -8.953125l-16.203125 0l0 12.453125l12.53125 0l0 12.078125l-12.53125 0l0 14.625l16.203125 0l0 -11.203125l13.578125 0l0 22.62497l-50.25 0l0 -11.4218445l6.625 0l0 -39.15625l-6.625 0l0 -12.578125zm57.49646 0l27.046875 0l0 11.453125l-6.671875 0l0 40.28125l13.75 0q0.546875 0 1.0625 -0.3125q0.53125 -0.3125 0.921875 -0.8125q0.390625 -0.5 0.640625 -1.078125q0.25 -0.578125 0.25 -1.125l0 -8.453125l13.5 0l0 23.203094l-50.5 0l0 -11.4218445l6.546875 0l0 -40.28125l-6.546875 0l0 -11.453125zm84.673676 64.28122q-4.296875 0 -8.21875 -1.15625q-3.90625 -1.171875 -7.3125 -3.296875q-3.390625 -2.1249695 -6.171875 -5.1093445q-2.765625 -2.984375 -4.71875 -6.625q-1.953125 -3.640625 -3.046875 -7.8125q-1.078125 -4.171875 -1.078125 -8.703125q0 -4.546875 1.078125 -8.734375q1.09375 -4.1875 3.046875 -7.828125q1.953125 -3.640625 4.71875 -6.625q2.78125 -2.984375 6.171875 -5.109375q3.40625 -2.125 7.3125 -3.28125q3.921875 -1.171875 8.21875 -1.171875q4.281189 0 8.218689 1.171875q3.9375 1.15625 7.328125 3.28125q3.40625 2.125 6.171875 5.109375q2.765625 2.984375 4.75 6.625q1.984375 3.640625 3.0625 7.828125q1.078125 4.1875 1.078125 8.734375q0 4.5 -1.078125 8.6875q-1.078125 4.1875 -3.0625 7.828125q-1.984375 3.640625 -4.75 6.625q-2.765625 2.984375 -6.171875 5.1093445q-3.390625 2.125 -7.328125 3.296875q-3.9375 1.15625 -8.218689 1.15625zm0 -13.0780945q3.624939 0 6.640564 -1.5625q3.015625 -1.5625 5.171875 -4.25q2.171875 -2.6875 3.359375 -6.25q1.1875 -3.5625 1.1875 -7.5625q0 -4.046875 -1.203125 -7.625q-1.203125 -3.578125 -3.390625 -6.265625q-2.1875 -2.6875 -5.1875 -4.25q-3.0 -1.5625 -6.578064 -1.5625q-3.59375 0 -6.59375 1.5625q-3.0 1.5625 -5.171875 4.25q-2.15625 2.6875 -3.390625 6.265625q-1.21875 3.578125 -1.21875 7.625q0 4.0 1.21875 7.5625q1.234375 3.5625 3.390625 6.25q2.171875 2.6875 5.171875 4.25q3.0 1.5625 6.59375 1.5625zm38.9021 -51.203125l29.171875 0q4.875 0 8.953125 1.515625q4.078125 1.515625 7.03125 4.109375q2.96875 2.578125 4.625 5.953125q1.671875 3.375 1.671875 7.046875q0 4.40625 -1.3125 8.265625q-1.3125 3.84375 -4.0625 6.6875q-2.75 2.828125 -6.953125 4.484375q-4.203125 1.640625 -9.953125 1.640625l-8.796875 0l0 12.03125l5.796875 0l0 11.4218445l-26.171875 0l0 -11.4218445l6.546875 0l0 -40.28125l-6.546875 0l0 -11.453125zm20.375 11.453125l0 16.953125l5.71875 0q4.75 0 7.53125 -2.0q2.796875 -2.0 2.796875 -6.328125q0 -4.046875 -2.625 -6.328125q-2.625 -2.296875 -7.703125 -2.296875l-5.71875 0zm37.954773 -11.453125l50.25 0l0 21.53125l-13.578125 0l0 -8.953125l-16.203125 0l0 12.453125l12.53125 0l0 12.078125l-12.53125 0l0 14.625l16.203125 0l0 -11.203125l13.578125 0l0 22.62497l-50.25 0l0 -11.4218445l6.625 0l0 -39.15625l-6.625 0l0 -12.578125zm57.49646 0l33.421875 0q4.875 0 8.703125 1.453125q3.828125 1.453125 6.453125 3.890625q2.625 2.4375 4.015625 5.671875q1.40625 3.234375 1.40625 6.734375q0 3.203125 -0.6875 5.625q-0.6875 2.40625 -2.0 4.28125q-1.3125 1.875 -3.234375 3.3125q-1.90625 1.4375 -4.375 2.609375q2.125 1.078125 3.75 3.3125q1.625 2.21875 2.46875 5.765625l2.125 8.203125l5.203125 0l0.078125 12.2968445l-18.328125 0l-2.5 -14.9999695q-0.375 -2.671875 -1.140625 -4.609375q-0.765625 -1.9375 -2.0625 -3.15625q-1.296875 -1.234375 -3.15625 -1.8125q-1.84375 -0.59375 -4.390625 -0.59375l-5.375 0l0 13.75l5.796875 0l0 11.4218445l-26.171875 0l0 -11.4218445l6.546875 0l0 -40.28125l-6.546875 0l0 -11.453125zm20.375 11.453125l0 15.28125l8.296875 0q2.375 0 4.265625 -0.4375q1.90625 -0.4375 3.25 -1.375q1.359375 -0.9375 2.078125 -2.34375q0.734375 -1.421875 0.734375 -3.375q0 -3.671875 -2.625 -5.703125q-2.625 -2.046875 -7.703125 -2.046875l-8.296875 0z" fill-rule="nonzero"/></g></svg>