<svg version="1.1" viewBox="0.0 0.0 960.0 720.0" fill="none" stroke="none" stroke-linecap="square" stroke-miterlimit="10" xmlns:xlink="http://www.w3.org/1999/xlink" xmlns="http://www.w3.org/2000/svg"><clipPath id="p.0"><path d="m0 0l960.0 0l0 720.0l-960.0 0l0 -720.0z" clip-rule="nonzero"/></clipPath><g clip-path="url(#p.0)"><path fill="#000000" fill-opacity="0.0" d="m0 0l960.0 0l0 720.0l-960.0 0z" fill-rule="evenodd"/><path fill="#9bb7cc" d="m509.05496 295.22128l277.99643 208.13705l-37.074768 -114.75946l65.05536 -8.6171875l-299.61896 -196.13203z" fill-rule="evenodd"/><path stroke="#000000" stroke-width="1.0" stroke-linejoin="round" stroke-linecap="butt" d="m509.05496 295.22128l277.99643 208.13705l-37.074768 -114.75946l65.05536 -8.6171875l-299.61896 -196.13203z" fill-rule="evenodd"/><path fill="#9bb7cc" d="m361.53018 228.4672l-269.08136 219.48819l120.30446 -8.265106l-7.346451 65.20474l262.65353 -243.36746z" fill-rule="evenodd"/><path stroke="#000000" stroke-width="1.0" stroke-linejoin="round" stroke-linecap="butt" d="m361.53018 228.4672l-269.08136 219.48819l120.30446 -8.265106l-7.346451 65.20474l262.65353 -243.36746z" fill-rule="evenodd"/><path fill="#edf5a4" d="m522.3335 257.58865l-49.005768 71.905334l-15.576508 -6.984894l-34.555786 73.35608l-17.274506 -5.9091187l-68.04611 106.734344l25.41211 -123.9986l19.60199 8.159027l17.214294 -77.94711l25.543243 7.8401184l17.852722 -82.094696z" fill-rule="evenodd"/><path stroke="#000000" stroke-width="1.0" stroke-linejoin="round" stroke-linecap="butt" d="m522.3335 257.58865l-49.005768 71.905334l-15.576508 -6.984894l-34.555786 73.35608l-17.274506 -5.9091187l-68.04611 106.734344l25.41211 -123.9986l19.60199 8.159027l17.214294 -77.94711l25.543243 7.8401184l17.852722 -82.094696z" fill-rule="evenodd"/><path fill="#edf5a4" d="m529.23236 216.96072l25.656433 83.147064l-15.173218 7.822418l35.80078 72.7547l-15.390991 9.820679l41.01233 119.74939l-81.09326 -97.18292l18.601257 -10.237427l-50.203156 -62.059784l22.05655 -15.081146l-53.047516 -65.14499z" fill-rule="evenodd"/><path stroke="#000000" stroke-width="1.0" stroke-linejoin="round" stroke-linecap="butt" d="m529.23236 216.96072l25.656433 83.147064l-15.173218 7.822418l35.80078 72.7547l-15.390991 9.820679l41.01233 119.74939l-81.09326 -97.18292l18.601257 -10.237427l-50.203156 -62.059784l22.05655 -15.081146l-53.047516 -65.14499z" fill-rule="evenodd"/><path fill="#edf5a4" d="m515.8905 259.07108l-6.0274353 86.80661l-16.972534 1.8293152l7.180084 80.76785l-17.895721 3.6148682l-4.8919983 126.48346l-40.627594 -119.87598l21.040436 -2.8468018l-24.468536 -75.98123l26.008942 -6.1200256l-26.010162 -79.884155z" fill-rule="evenodd"/><path stroke="#000000" stroke-width="1.0" stroke-linejoin="round" stroke-linecap="butt" d="m515.8905 259.07108l-6.0274353 86.80661l-16.972534 1.8293152l7.180084 80.76785l-17.895721 3.6148682l-4.8919983 126.48346l-40.627594 -119.87598l21.040436 -2.8468018l-24.468536 -75.98123l26.008942 -6.1200256l-26.010162 -79.884155z" fill-rule="evenodd"/><path fill="#d9d9d9" d="m314.32935 173.40312l0 0c-3.2209167 -19.779724 7.3540344 -39.36046 27.237488 -50.433357c19.883484 -11.0729065 45.58838 -11.696045 66.20712 -1.6049957l0 0c7.3038025 -11.500748 20.671875 -19.441223 36.06064 -21.419586c15.388763 -1.9783554 30.990753 2.2377625 42.08667 11.37307l0 0c6.2218933 -10.427322 18.43869 -17.433144 32.315247 -18.531448c13.876526 -1.0983047 27.448975 3.866356 35.901062 13.132263l0 0c11.240723 -11.052933 29.125061 -15.70668 45.914307 -11.947533c16.789246 3.7591476 29.467896 15.256004 32.549866 29.515823l0 0c13.771851 3.1390839 25.24347 11.119041 31.45105 21.878105c6.2075806 10.759079 6.542053 23.241806 0.91711426 34.223083l0 0c13.561218 14.749054 16.733582 34.401978 8.333069 51.624664c-8.400452 17.222687 -27.111572 29.427597 -49.150757 32.060135c-0.15539551 16.164093 -10.763855 30.996094 -27.736572 38.779053c-16.972717 7.7829895 -37.6593 7.301605 -54.08618 -1.2585754l0 0c-6.9969482 19.359314 -26.691162 33.6037 -50.573914 36.57907c-23.882751 2.9753723 -47.672607 -5.851654 -61.091522 -22.667511l0 0c-16.448761 8.288605 -36.185913 10.67627 -54.759125 6.62442c-18.573242 -4.051819 -34.41803 -14.201874 -43.960114 -28.160492l0 0c-16.808563 1.6436462 -33.06015 -5.6335754 -40.689117 -18.220001c-7.628937 -12.586456 -5.0112915 -27.80278 6.5538635 -38.097168l0 0c-14.993683 -7.374405 -22.644379 -22.007675 -18.962524 -36.269135c3.6818542 -14.261459 17.861908 -24.919403 35.145844 -26.416138z" fill-rule="evenodd"/><path fill="#000000" fill-opacity="0.0" d="m297.81378 236.85074l0 0c7.0755615 3.480011 15.249481 5.0586243 23.424316 4.52388m10.707245 51.79454c3.5154724 -0.34378052 6.9613037 -1.0717468 10.248627 -2.1651306m88.4657 23.700317c-2.4725342 -3.0984802 -4.542694 -6.409485 -6.175171 -9.876556m117.84491 -4.035614l0 0c1.2756348 -3.52948 2.1021729 -7.1621094 2.4657593 -10.837219m79.35388 -26.681885c0.16534424 -17.209198 -11.531616 -32.96611 -30.066711 -40.50267m70.88403 -43.180313c-3.001709 5.8600464 -7.5841675 11.058426 -13.3880005 15.1875305m-18.977356 -71.29026l0 0c0.5114136 2.3664246 0.7481079 4.7684097 0.7067871 7.172676m-79.16968 -24.74025l0 0c-2.804016 2.7571564 -5.1141357 5.8382416 -6.8584595 9.147324m-61.35846 -3.7493362l0 0c-1.4942932 2.504303 -2.610138 5.1542892 -3.3218079 7.8889084m-74.82663 2.157814l0 0c4.362915 2.1352615 8.3992 4.7052765 12.020172 7.6535873m-105.46359 44.38504l0 0c0.4439392 2.7261505 1.1453552 5.418701 2.0977173 8.052444" fill-rule="evenodd"/><path stroke="#000000" stroke-width="1.0" stroke-linejoin="round" stroke-linecap="butt" d="m314.32935 173.40312l0 0c-3.2209167 -19.779724 7.3540344 -39.36046 27.237488 -50.433357c19.883484 -11.0729065 45.58838 -11.696045 66.20712 -1.6049957l0 0c7.3038025 -11.500748 20.671875 -19.441223 36.06064 -21.419586c15.388763 -1.9783554 30.990753 2.2377625 42.08667 11.37307l0 0c6.2218933 -10.427322 18.43869 -17.433144 32.315247 -18.531448c13.876526 -1.0983047 27.448975 3.866356 35.901062 13.132263l0 0c11.240723 -11.052933 29.125061 -15.70668 45.914307 -11.947533c16.789246 3.7591476 29.467896 15.256004 32.549866 29.515823l0 0c13.771851 3.1390839 25.24347 11.119041 31.45105 21.878105c6.2075806 10.759079 6.542053 23.241806 0.91711426 34.223083l0 0c13.561218 14.749054 16.733582 34.401978 8.333069 51.624664c-8.400452 17.222687 -27.111572 29.427597 -49.150757 32.060135c-0.15539551 16.164093 -10.763855 30.996094 -27.736572 38.779053c-16.972717 7.7829895 -37.6593 7.301605 -54.08618 -1.2585754l0 0c-6.9969482 19.359314 -26.691162 33.6037 -50.573914 36.57907c-23.882751 2.9753723 -47.672607 -5.851654 -61.091522 -22.667511l0 0c-16.448761 8.288605 -36.185913 10.67627 -54.759125 6.62442c-18.573242 -4.051819 -34.41803 -14.201874 -43.960114 -28.160492l0 0c-16.808563 1.6436462 -33.06015 -5.6335754 -40.689117 -18.220001c-7.628937 -12.586456 -5.0112915 -27.80278 6.5538635 -38.097168l0 0c-14.993683 -7.374405 -22.644379 -22.007675 -18.962524 -36.269135c3.6818542 -14.261459 17.861908 -24.919403 35.145844 -26.416138z" fill-rule="evenodd"/><path stroke="#000000" stroke-width="1.0" stroke-linejoin="round" stroke-linecap="butt" d="m297.81378 236.85074l0 0c7.0755615 3.480011 15.249481 5.0586243 23.424316 4.52388m10.707245 51.79454c3.5154724 -0.34378052 6.9613037 -1.0717468 10.248627 -2.1651306m88.4657 23.700317c-2.4725342 -3.0984802 -4.542694 -6.409485 -6.175171 -9.876556m117.84491 -4.035614l0 0c1.2756348 -3.52948 2.1021729 -7.1621094 2.4657593 -10.837219m79.35388 -26.681885c0.16534424 -17.209198 -11.531616 -32.96611 -30.066711 -40.50267m70.88403 -43.180313c-3.001709 5.8600464 -7.5841675 11.058426 -13.3880005 15.1875305m-18.977356 -71.29026l0 0c0.5114136 2.3664246 0.7481079 4.7684097 0.7067871 7.172676m-79.16968 -24.74025l0 0c-2.804016 2.7571564 -5.1141357 5.8382416 -6.8584595 9.147324m-61.35846 -3.7493362l0 0c-1.4942932 2.504303 -2.610138 5.1542892 -3.3218079 7.8889084m-74.82663 2.157814l0 0c4.362915 2.1352615 8.3992 4.7052765 12.020172 7.6535873m-105.46359 44.38504l0 0c0.4439392 2.7261505 1.1453552 5.418701 2.0977173 8.052444" fill-rule="evenodd"/><path fill="#000000" fill-opacity="0.0" d="m181.042 417.40152l167.14961 -149.7008l31.275574 34.897644l-167.1496 149.70078z" fill-rule="evenodd"/><path fill="#efefef" d="m209.82074 433.1718q-0.5936127 0.5316467 -1.2146606 0.35372925q-0.6094055 -0.18835449 -0.85269165 -0.9982605l-4.395645 -13.871368q-0.2284851 -0.6763611 -0.10192871 -1.1672668q0.1265564 -0.49087524 0.53393555 -0.8557434q0.38409424 -0.34399414 0.8860626 -0.41601562q0.5019684 -0.07199097 1.1611023 0.21862793l13.323044 5.875946q0.7891083 0.34204102 0.9213104 0.9577637q0.12176514 0.604126 -0.46018982 1.1253357q-0.46557617 0.41696167 -0.94184875 0.42401123q-0.46463013 -0.0033874512 -1.0912628 -0.28118896l-2.5899658 -1.2042847l-5.8080444 5.2017517l0.92555237 2.6949463q0.2168274 0.6867676 0.17053223 1.12677q-0.03463745 0.42956543 -0.4653015 0.8152466zm-3.8447113 -14.029175l2.4154816 7.0029297l4.3181915 -3.8674011l-6.6987457 -3.166809l-0.03492737 0.031280518zm17.29744 1.9808044q-0.9777069 0.87564087 -1.8849487 -0.13668823l-9.093384 -10.146484q-0.9072418 -1.0123291 0.1053772 -1.9192505q0.4190216 -0.37527466 0.809433 -0.4312744q0.39042664 -0.055999756 0.9324188 0.15075684l10.354233 3.7104797l-2.5558624 -10.694763q-0.1346283 -0.57162476 -0.047836304 -0.9430237q0.08679199 -0.3713684 0.5058136 -0.74664307q0.9777069 -0.87564087 1.8849487 0.13665771l9.093384 10.146484q0.9072571 1.0123291 -0.07044983 1.88797q-0.9777069 0.87564087 -1.884964 -0.13665771l-6.4029083 -7.1444397l2.0273438 8.630066q0.075683594 0.43563843 0.014587402 0.7420654q-0.071517944 0.2947693 -0.3857727 0.5762329q-0.32591248 0.29187012 -0.660553 0.33987427q-0.3230133 0.037597656 -0.71417236 -0.09451294l-8.32785 -2.924347l6.371628 7.1095276q0.9072418 1.0122986 -0.07046509 1.88797zm13.7530365 -12.317352q-0.5936127 0.5316467 -1.2146606 0.35372925q-0.6094208 -0.18835449 -0.85269165 -0.998291l-4.3956604 -13.871368q-0.22846985 -0.67633057 -0.10191345 -1.1672363q0.12654114 -0.49090576 0.5339203 -0.8557434q0.3841095 -0.34402466 0.8860779 -0.41601562q0.5019684 -0.072021484 1.1611023 0.21862793l13.323029 5.8759155q0.78912354 0.34204102 0.9213104 0.9577942q0.121780396 0.60409546 -0.46018982 1.1253052q-0.46557617 0.4169922 -0.94184875 0.42401123q-0.46463013 -0.0033569336 -1.0912628 -0.28115845l-2.5899658 -1.2042847l-5.808029 5.201721l0.9255371 2.6949768q0.21684265 0.6867676 0.17054749 1.1267395q-0.03465271 0.42956543 -0.4653015 0.8152771zm-3.8447113 -14.029205l2.4154663 7.00296l4.318207 -3.8674316l-6.698761 -3.166809l-0.03491211 0.031280518zm16.479675 2.4614868q-0.5586853 0.5003662 -1.0987396 0.45965576q-0.5504761 -0.052337646 -0.9326782 -0.54904175q-0.3809967 -0.5187683 -0.45695496 -1.3526917l-1.2686005 -13.378845l-5.458847 4.888977q-0.954422 0.85479736 -1.7678223 -0.05279541q-0.8029785 -0.8959656 0.15144348 -1.7507629l6.983612 -6.2545776q0.5586853 -0.5003662 1.1091614 -0.44802856q0.5400543 0.04071045 0.9222717 0.53744507q0.3717804 0.4850464 0.4569397 1.3526917l1.2802429 13.368408l5.7032776 -5.10791q0.954422 -0.85479736 1.7574005 0.041168213q0.813385 0.9075928 -0.14102173 1.7623901l-7.239685 6.483917zm10.917694 -9.526276q-1.0708008 0.9590149 -2.07193 -0.15802002l-8.905655 -9.937042q-1.0011139 -1.1170349 0.06971741 -2.0760803q1.0824585 -0.9694519 2.0835571 0.14758301l8.90567 9.937042q1.0010986 1.1170349 -0.08135986 2.0865173zm4.7011414 -4.210388q-1.0126343 0.9069214 -1.9511719 -0.14031982l-8.999512 -10.041748q-0.4692688 -0.5236206 -0.46348572 -1.0322266q0.017425537 -0.51901245 0.43644714 -0.8942871q0.38409424 -0.34399414 0.7175293 -0.36993408q0.3230133 -0.037597656 0.89312744 0.06008911l13.014862 2.4183044l-6.632324 -7.400421q-0.9281006 -1.0355835 0.084503174 -1.9425049q1.0009766 -0.8964844 1.9291077 0.13909912l9.07251 10.12323q0.41711426 0.46542358 0.42297363 0.9635925q0.007080078 0.47610474 -0.38867188 0.8305359q-0.39575195 0.35443115 -0.7640991 0.4116516q-0.35671997 0.046783447 -0.92681885 -0.050872803l-13.047363 -2.4311523l6.6531982 7.4236755q0.9385376 1.0472412 -0.050811768 1.9332886zm17.347137 -15.494324q-1.967041 1.7617188 -3.9858093 2.248291q-2.0292053 0.47494507 -3.95932 -0.25057983q-1.9405212 -0.7371216 -3.6194458 -2.6105042q-1.6893616 -1.8850098 -2.1982727 -3.904358q-0.5076599 -2.0414124 0.18673706 -4.0057373q0.6956177 -1.9864197 2.6044617 -3.695984q0.94277954 -0.84439087 2.105774 -1.4664612q1.1525574 -0.6336975 2.480713 -0.8373718q0.5706177 -0.11248779 0.9520874 0.19610596q0.38146973 0.30859375 0.49887085 0.79074097q0.11859131 0.46011353 -0.10421753 0.8904114q-0.22283936 0.43029785 -0.82714844 0.55200195q-0.98550415 0.21142578 -1.7949524 0.6427002q-0.80822754 0.40924072 -1.6113281 1.1285095q-1.8972168 1.6991577 -1.8830261 3.658142q0.014190674 1.9590149 1.8599548 4.0185547q1.8562317 2.0711975 3.8153992 2.2672424q1.9707947 0.18566895 3.9262085 -1.5656128q0.5586853 -0.5003967 1.0572205 -1.114685q0.49856567 -0.61428833 0.9020386 -1.3112793l-2.481903 -2.7693176l-1.8506775 1.6574707q-0.8845825 0.7922363 -1.604126 -0.010650635q-0.70910645 -0.79122925 0.17547607 -1.5834656l2.7817993 -2.4914246q0.8729553 -0.78182983 1.6550598 0.09088135l3.6707153 4.095825q0.69869995 0.77960205 0.29159546 1.5427551q-0.5050659 0.9347534 -1.3147278 1.9745178q-0.79800415 1.0293274 -1.7291565 1.8632812zm15.984985 -14.358246q-0.8613281 0.77142334 -1.9950256 0.2555542l-13.275269 -5.9396667q-0.8412781 -0.40020752 -0.9048462 -1.0564575q-0.051940918 -0.666626 0.5184021 -1.1774292q0.48886108 -0.4378357 0.92099 -0.44729614q0.4321289 -0.009460449 0.9925537 0.26470947l11.171051 5.1603394l-3.9405823 -11.677948q-0.17877197 -0.57406616 -0.1104126 -1.0128479q0.068359375 -0.43878174 0.52230835 -0.8453064q0.5354004 -0.4795227 1.179718 -0.32244873q0.64434814 0.15707397 0.9060669 1.0343628l4.464264 13.830902q0.18917847 0.58566284 0.10797119 1.0569458q-0.09161377 0.45962524 -0.55718994 0.8765869zm6.4110413 -5.741791q-0.5936279 0.5316467 -1.2146606 0.35372925q-0.60943604 -0.18835449 -0.85269165 -0.9982605l-4.3956604 -13.871368q-0.2284851 -0.6763611 -0.10192871 -1.1672363q0.1265564 -0.49090576 0.53393555 -0.8557739q0.38409424 -0.34399414 0.8860779 -0.41601562q0.5019531 -0.07199097 1.1611023 0.21865845l13.323029 5.8759155q0.78912354 0.34204102 0.9213257 0.9577637q0.12176514 0.604126 -0.46020508 1.1253357q-0.46557617 0.41696167 -0.9418335 0.42401123q-0.46463013 -0.0033874512 -1.0912781 -0.28118896l-2.5899658 -1.2042847l-5.8080444 5.2017517l0.9255371 2.6949463q0.21685791 0.6867676 0.17056274 1.12677q-0.03466797 0.42956543 -0.4653015 0.8152466zm-3.8447266 -14.029175l2.4154968 7.0029297l4.3181763 -3.8674011l-6.698761 -3.166809l-0.03491211 0.031280518zm17.253784 1.7681885q-1.0940857 0.9798889 -2.0952148 -0.137146l-8.717957 -9.7276q-0.9906616 -1.1054077 0.08013916 -2.0644531q1.0824585 -0.9694519 2.0731506 0.13595581l8.071411 9.006165l4.900177 -4.3886414q0.94277954 -0.84436035 1.7561646 0.06323242q0.83425903 0.9308777 -0.10852051 1.775238l-5.9593506 5.3372498zm12.999084 -11.34845q-2.4442444 2.189087 -4.8728943 2.0778809q-2.42865 -0.111206055 -4.670685 -2.612915l-5.4331055 -6.0622864q-0.9802246 -1.0937805 0.10223389 -2.0632324q1.0824585 -0.9694824 2.062683 0.124298096l5.4226685 6.050659q1.4286499 1.5941162 2.8814697 1.7402649q1.4528503 0.14614868 2.8495483 -1.1047668q2.8632812 -2.564392 -0.0044555664 -5.7642517l-5.4226685 -6.050659q-0.9802551 -1.0937805 0.09057617 -2.052826q1.0708313 -0.9590149 2.0510864 0.1347351l5.433075 6.062317q2.2420654 2.501709 2.1100464 4.90625q-0.13201904 2.4045715 -2.5995789 4.6145325zm8.514832 -7.9196167q-1.1406555 1.0215759 -2.1730652 -0.1303711l-8.603241 -9.599579q-1.0219727 -1.1403198 0.11868286 -2.1619263l6.0292053 -5.3997803q0.8729553 -0.78182983 1.6237793 0.05596924q0.7925415 0.88430786 -0.08041382 1.6661377l-5.0980225 4.565857l2.9302979 3.2696838l4.725586 -4.2322693q0.8729553 -0.78182983 1.6446228 0.07922363q0.771698 0.86105347 -0.101257324 1.6428833l-4.725586 4.2322693l3.097168 3.455841l5.098053 -4.5658264q0.8729553 -0.78182983 1.6446228 0.07922363q0.771698 0.86105347 -0.101257324 1.6428833l-6.029175 5.3997803z" fill-rule="nonzero"/><path fill="#000000" fill-opacity="0.0" d="m618.20624 269.8457l167.1496 126.33072l-28.283447 37.385834l-167.14966 -126.33072z" fill-rule="evenodd"/><path fill="#efefef" d="m612.33655 304.2017q-1.1592407 -0.87615967 -0.25427246 -2.0724182l7.3813477 -9.756836l-3.527649 -2.6661987q-0.98480225 -0.7442627 -0.24945068 -1.716217q0.7258301 -0.95947266 1.7106323 -0.21520996l9.361389 7.0753174q0.9971924 0.7536926 0.27130127 1.7131653q-0.7352905 0.97195435 -1.7324829 0.21826172l-3.5151978 -2.6567688l-7.3813477 9.756836q-0.90496826 1.196228 -2.06427 0.32006836zm8.145386 6.15625q-1.1467896 -0.86676025 -0.24182129 -2.0629883l7.956421 -10.516968q0.8861084 -1.1713257 2.0578613 -0.28573608l4.350342 3.2879944q2.1066284 1.5921936 2.477417 3.4588318q0.380188 1.854187 -0.9867554 3.6610107q-1.074646 1.4205322 -2.529602 1.7898254q-1.4425049 0.37872314 -3.071228 -0.3430481q0.70562744 0.98376465 0.46191406 2.5231323l-0.5455322 3.5439758q-0.12200928 0.80874634 -0.69854736 1.1564331q-0.55462646 0.34466553 -1.2901001 -0.21118164q-0.48614502 -0.36743164 -0.6375122 -0.8147888q-0.13891602 -0.43795776 -0.045776367 -1.0531006l0.7034302 -4.7368774q0.14727783 -0.86798096 -0.15063477 -1.4065247q-0.276062 -0.54156494 -0.9616089 -1.0597229l-1.7202148 -1.3001099l-3.0637817 4.0497437q-0.90496826 1.1962585 -2.06427 0.32009888zm6.428955 -6.089447l2.8171387 2.129181q2.5304565 1.9124756 4.0859375 -0.14355469q1.5460205 -2.043579 -0.98443604 -3.9560547l-2.8171387 -2.129181l-3.1015015 4.0996094zm6.158142 15.367645q-1.2216187 -0.9232788 -0.28833008 -2.1568909l7.7772827 -10.280212q0.9238281 -1.2211609 2.1454468 -0.29788208l6.45697 4.8801575q0.9348755 0.706604 0.25616455 1.6037903q-0.71643066 0.9470215 -1.6513672 0.24041748l-5.459778 -4.126465l-2.6489868 3.5014954l5.060913 3.8249817q0.9348755 0.706604 0.23730469 1.6286926q-0.69763184 0.92211914 -1.6325073 0.21551514l-5.060913 -3.8249817l-2.7998047 3.7008667l5.459778 4.126465q0.9349365 0.706604 0.23730469 1.6286926q-0.6975708 0.92211914 -1.6325073 0.21551514l-6.45697 -4.8801575zm10.540283 8.201324q-1.0470581 -0.79138184 -0.22692871 -1.8754883l8.220337 -10.865845q0.8201294 -1.0841064 1.904602 -0.26446533q0.44873047 0.33917236 0.57855225 0.7114563q0.12976074 0.37231445 0.030578613 0.94366455l-1.6594238 10.869354l10.011169 -4.5571594q0.5354614 -0.24163818 0.91674805 -0.22766113q0.38128662 0.013977051 0.8300171 0.3531189q1.0471191 0.79138184 0.22692871 1.8754883l-8.220337 10.865845q-0.8201294 1.0841064 -1.8671875 0.2927246q-1.0471191 -0.79138184 -0.22692871 -1.8754883l5.788147 -7.65094l-8.085205 3.6429443q-0.413208 0.15774536 -0.72576904 0.15652466q-0.30316162 -0.013671875 -0.6397095 -0.2680359q-0.34899902 -0.26379395 -0.4602661 -0.58291626q-0.09881592 -0.30969238 -0.044006348 -0.71875l1.2758179 -8.730682l-5.7598877 7.6135864q-0.8201904 1.0840759 -1.8672485 0.2927246zm15.938965 11.811554q-1.2216187 -0.9232788 -0.28833008 -2.1569214l7.7772827 -10.280182q0.9238281 -1.2211609 2.1454468 -0.29788208l6.45697 4.8801575q0.9348755 0.7065735 0.25616455 1.6037598q-0.71643066 0.9470215 -1.6513672 0.240448l-5.459778 -4.126465l-2.6489868 3.5014954l5.060913 3.8249817q0.9348755 0.7065735 0.23730469 1.6286926q-0.69763184 0.9220886 -1.6325073 0.21551514l-5.060913 -3.8249817l-2.7998047 3.7008667l5.459778 4.126465q0.9349365 0.7065735 0.23730469 1.6286926q-0.6975708 0.9220886 -1.6325073 0.21551514l-6.45697 -4.8801575zm10.540283 8.201294q-1.0844727 -0.8196411 -0.23602295 -1.9411011l8.135437 -10.753723q0.42425537 -0.56073 0.92474365 -0.65252686q0.51293945 -0.08236694 0.9616699 0.2567749q0.41137695 0.3109131 0.5007324 0.63305664q0.09875488 0.30969238 0.11206055 0.88775635l0.11907959 13.231964l5.9955444 -7.92511q0.83898926 -1.1090088 1.9234619 -0.28936768q1.0720215 0.8102112 0.23303223 1.91922l-8.201477 10.840942q-0.3770752 0.4984436 -0.8651123 0.5996399q-0.4661255 0.09817505 -0.8899536 -0.22213745q-0.42382812 -0.3203125 -0.5505371 -0.67071533q-0.11431885 -0.34100342 -0.12762451 -0.9190674l-0.1126709 -13.266296l-6.0144043 7.950012q-0.8483887 1.1214905 -1.907959 0.3206787zm13.77002 10.172272q-1.2216187 -0.9232788 -0.28833008 -2.1568909l7.7772827 -10.280212q0.9238281 -1.2211609 2.1454468 -0.29788208l3.5151978 2.6567688q3.191101 2.4118347 3.6918335 5.3756104q0.50079346 2.9638062 -1.8182373 6.029175q-2.3096313 3.052887 -5.317993 3.4036865q-2.9989014 0.33831787 -6.1900024 -2.0734863l-3.5151978 -2.6567688zm2.536255 -1.0993347l2.281128 1.7240906q4.4126587 3.335083 7.7875366 -1.125885q3.3654175 -4.4485474 -1.0472412 -7.7836304l-2.281128 -1.72406l-6.7402954 8.909485zm15.592041 15.074829q-1.8448486 -1.3943481 -2.6157227 -3.2500305q-0.770874 -1.8557129 -0.41888428 -3.9007874q0.35198975 -2.0450745 1.8603516 -4.038788q1.5177002 -2.006195 3.3810425 -2.8894348q1.8728027 -0.8956909 3.84729 -0.65686035q1.9839478 0.2263794 3.8536987 1.6395569q1.8573608 1.4037476 2.6157837 3.2500305q0.78027344 1.8432312 0.41583252 3.8788757q-0.34259033 2.0326233 -1.8508911 4.026367q-1.5177612 2.006195 -3.390503 2.901886q-1.8603516 0.90509033 -3.8566895 0.6693115q-1.9839478 -0.2263794 -3.8413086 -1.630127zm1.4989014 -1.9812927q1.7451782 1.3189697 3.631836 0.8451233q1.8991699 -0.4644165 3.5300903 -2.6201477q1.6402588 -2.1681824 1.5635376 -4.0868225q-0.05480957 -1.9216614 -1.8248901 -3.259491q-1.7576294 -1.3283691 -3.6348877 -0.8669739q-1.8678589 0.44891357 -3.5081177 2.6171265q-1.6309204 2.1557007 -1.572998 4.0992737q0.057861328 1.9435425 1.8154297 3.2719116zm12.265869 12.3845825q-2.6177368 -1.9784546 -2.973816 -4.382416q-0.3560791 -2.4039917 1.6707153 -5.083069l4.911438 -6.492096q0.88616943 -1.1713257 2.0454102 -0.29516602q1.1592407 0.8761902 0.27313232 2.0475159l-4.9020386 6.4796143q-1.2915039 1.7071533 -1.1566772 3.1604614q0.1348877 1.4533386 1.6306763 2.5838928q3.0664673 2.3175964 5.6588745 -1.1091309l4.9020386 -6.479645q0.88616943 -1.1713257 2.032959 -0.30456543q1.1467896 0.86672974 0.26068115 2.0380554l-4.911499 6.492096q-2.0267944 2.6790771 -4.413025 3.0104065q-2.3862305 0.33132935 -5.0288696 -1.6659546zm12.441528 9.403229q-1.2091675 -0.9138489 -2.157959 -2.0422668q-0.9394531 -1.1408691 -1.3817139 -2.3173523q-0.21643066 -0.5944519 -0.0020141602 -1.0591431q0.2144165 -0.46469116 0.6279297 -0.700531q0.42297363 -0.24832153 0.8538208 -0.11856079q0.44024658 0.11730957 0.67858887 0.7087097q0.43951416 1.076477 1.1549072 1.9696655q0.72473145 0.8807373 1.6970215 1.6156006q1.4335327 1.083435 2.4399414 1.099823q1.0158081 0.0039367676 1.5908813 -0.75619507q0.48077393 -0.63549805 0.29296875 -1.3454285q-0.18786621 -0.70996094 -1.1400146 -1.7821655l-1.661499 -1.9216309q-2.8562012 -3.2947083 -0.76342773 -6.0610046q0.89556885 -1.1837769 2.1881104 -1.5974426q1.3050537 -0.40423584 2.7946167 -0.042297363q1.4989014 0.3494568 2.9698486 1.4611511q1.0844727 0.8196411 1.8493652 1.8286438q0.7648926 1.0089722 1.1542358 2.1258545q0.17297363 0.5224304 -0.04748535 0.9433594q-0.20806885 0.4303589 -0.6057739 0.6194153q-0.39770508 0.1890564 -0.8410034 0.049865723q-0.43389893 -0.15164185 -0.7001953 -0.78378296q-0.3902588 -0.88256836 -0.9533081 -1.5627441q-0.5630493 -0.68014526 -1.3608398 -1.2831116q-1.246521 -0.94210815 -2.3529663 -0.9557495q-1.0939941 -0.0042419434 -1.7350464 0.84310913q-0.49017334 0.6479492 -0.3555298 1.3764343q0.14404297 0.71603394 1.0308228 1.7192383l1.6584473 1.8997498q1.4902954 1.7335205 1.7501221 3.2029724q0.27227783 1.4788513 -0.75531006 2.8370667q-0.8578491 1.1339417 -2.1409912 1.5351562q-1.2706909 0.410614 -2.7632446 0.026794434q-1.4801025 -0.37438965 -3.0133057 -1.5332031z" fill-rule="nonzero"/><path fill="#000000" fill-opacity="0.0" d="m351.66797 129.48819l230.64569 0l0 40.409454l-230.64569 0z" fill-rule="evenodd"/><path fill="#c27ba0" d="m363.10547 155.26881q-1.109375 0 -1.109375 -1.140625l0 -10.09375q0 -1.125 1.125 -1.125l4.1875 0q2.0 0 3.09375 0.96875q1.09375 0.953125 1.09375 2.6875q0 1.375 -0.71875 2.265625q-0.703125 0.890625 -2.03125 1.203125q0.875 0.28125 1.453125 1.328125l1.296875 2.40625q0.296875 0.5625 0.109375 1.03125q-0.171875 0.46875 -0.890625 0.46875q-0.46875 0 -0.765625 -0.203125q-0.28125 -0.203125 -0.515625 -0.609375l-1.75 -3.234375q-0.3125 -0.578125 -0.734375 -0.78125q-0.421875 -0.203125 -1.078125 -0.203125l-1.65625 0l0 3.890625q0 1.140625 -1.109375 1.140625zm1.109375 -6.671875l2.703125 0q2.4375 0 2.4375 -1.984375q0 -1.953125 -2.4375 -1.953125l-2.703125 0l0 3.9375zm9.567963 6.671875q-0.609375 0 -0.875 -0.40625q-0.25 -0.421875 0.03125 -1.015625l4.578125 -10.140625q0.21875 -0.5 0.53125 -0.71875q0.328125 -0.21875 0.75 -0.21875q0.390625 0 0.703125 0.21875q0.328125 0.21875 0.5625 0.71875l4.578125 10.140625q0.28125 0.609375 0.03125 1.015625q-0.234375 0.40625 -0.828125 0.40625q-0.484375 0 -0.75 -0.234375q-0.265625 -0.234375 -0.46875 -0.71875l-0.875 -2.015625l-5.953125 0l-0.859375 2.015625q-0.21875 0.5 -0.46875 0.734375q-0.234375 0.21875 -0.6875 0.21875zm4.96875 -9.953125l-2.1875 5.21875l4.421875 0l-2.1875 -5.21875l-0.046875 0zm8.907654 9.953125q-1.109375 0 -1.109375 -1.140625l0 -10.21875q0 -1.140625 1.109375 -1.140625q1.109375 0 1.109375 1.140625l0 10.21875q0 1.140625 -1.109375 1.140625zm4.824005 0q-1.046875 0 -1.046875 -1.078125l0 -10.3125q0 -0.53125 0.265625 -0.8125q0.28125 -0.296875 0.703125 -0.296875q0.40625 0 0.609375 0.15625q0.203125 0.140625 0.46875 0.484375l6.1875 8.03125l0 -7.609375q0 -1.0625 1.046875 -1.0625q1.015625 0 1.015625 1.0625l0 10.390625q0 0.484375 -0.25 0.765625q-0.234375 0.28125 -0.65625 0.28125q-0.390625 0 -0.625 -0.15625q-0.234375 -0.15625 -0.515625 -0.5l-6.1875 -8.046875l0 7.625q0 1.078125 -1.015625 1.078125zm15.94574 0q-1.109375 0 -1.109375 -1.15625l0 -4.59375l-3.71875 -5.21875q-0.21875 -0.3125 -0.203125 -0.671875q0.03125 -0.359375 0.296875 -0.609375q0.265625 -0.25 0.734375 -0.25q0.671875 0 1.171875 0.71875l2.859375 4.046875l2.875 -4.046875q0.28125 -0.390625 0.53125 -0.546875q0.265625 -0.171875 0.640625 -0.171875q0.6875 0 0.890625 0.5q0.21875 0.5 -0.171875 1.046875l-3.6875 5.21875l0 4.578125q0 1.15625 -1.109375 1.15625z" fill-rule="nonzero"/><path fill="#38761d" d="m425.48984 155.30006q-1.90625 0 -3.265625 -0.765625q-1.359375 -0.78125 -2.09375 -2.1875q-0.71875 -1.40625 -0.71875 -3.328125q0 -1.9375 0.71875 -3.328125q0.734375 -1.40625 2.09375 -2.171875q1.359375 -0.78125 3.265625 -0.78125q0.953125 0 1.875 0.25q0.921875 0.234375 1.609375 0.6875q0.453125 0.296875 0.53125 0.703125q0.09375 0.40625 -0.09375 0.75q-0.1875 0.328125 -0.578125 0.453125q-0.375 0.109375 -0.84375 -0.203125q-0.546875 -0.359375 -1.171875 -0.515625q-0.609375 -0.15625 -1.25 -0.15625q-1.859375 0 -2.828125 1.125q-0.96875 1.125 -0.96875 3.1875q0 2.046875 0.96875 3.1875q0.96875 1.125 2.828125 1.125q0.65625 0 1.296875 -0.15625q0.640625 -0.171875 1.203125 -0.53125q0.46875 -0.28125 0.828125 -0.171875q0.375 0.09375 0.546875 0.421875q0.1875 0.3125 0.109375 0.703125q-0.0625 0.375 -0.453125 0.671875q-0.703125 0.5 -1.671875 0.765625q-0.953125 0.265625 -1.9375 0.265625zm7.2049255 -0.03125q-1.109375 0 -1.109375 -1.140625l0 -10.21875q0 -1.140625 1.109375 -1.140625q1.109375 0 1.109375 1.140625l0 10.21875q0 1.140625 -1.109375 1.140625zm7.83963 0q-1.109375 0 -1.109375 -1.140625l0 -9.359375l-3.375 0q-0.953125 0 -0.953125 -0.9375q0 -0.921875 0.953125 -0.921875l8.96875 0q0.953125 0 0.953125 0.921875q0 0.9375 -0.953125 0.9375l-3.375 0l0 9.359375q0 1.140625 -1.109375 1.140625zm10.954773 0q-1.109375 0 -1.109375 -1.15625l0 -4.59375l-3.71875 -5.21875q-0.21875 -0.3125 -0.203125 -0.671875q0.03125 -0.359375 0.296875 -0.609375q0.265625 -0.25 0.734375 -0.25q0.671875 0 1.171875 0.71875l2.859375 4.046875l2.875 -4.046875q0.28125 -0.390625 0.53125 -0.546875q0.265625 -0.171875 0.640625 -0.171875q0.6875 0 0.890625 0.5q0.21875 0.5 -0.171875 1.046875l-3.6875 5.21875l0 4.578125q0 1.15625 -1.109375 1.15625z" fill-rule="nonzero"/><path fill="#000000" d="m462.98752 155.26881q-0.609375 0 -0.875 -0.40625q-0.25 -0.421875 0.03125 -1.015625l4.578125 -10.140625q0.21875 -0.5 0.53125 -0.71875q0.328125 -0.21875 0.75 -0.21875q0.390625 0 0.703125 0.21875q0.328125 0.21875 0.5625 0.71875l4.578125 10.140625q0.28125 0.609375 0.03125 1.015625q-0.234375 0.40625 -0.828125 0.40625q-0.484375 0 -0.75 -0.234375q-0.265625 -0.234375 -0.46875 -0.71875l-0.875 -2.015625l-5.953125 0l-0.859375 2.015625q-0.21875 0.5 -0.46875 0.734375q-0.234375 0.21875 -0.6875 0.21875zm4.96875 -9.953125l-2.1875 5.21875l4.421875 0l-2.1875 -5.21875l-0.046875 0zm11.055176 9.953125q-0.875 0 -1.203125 -0.9375l-3.625 -10.234375q-0.1875 -0.5625 0.078125 -0.9375q0.265625 -0.390625 0.90625 -0.390625q0.46875 0 0.71875 0.21875q0.265625 0.21875 0.421875 0.6875l2.78125 8.25l2.90625 -8.234375q0.328125 -0.921875 1.109375 -0.921875q0.421875 0 0.65625 0.234375q0.25 0.21875 0.421875 0.703125l2.859375 8.34375l2.859375 -8.375q0.15625 -0.453125 0.40625 -0.671875q0.265625 -0.234375 0.71875 -0.234375q0.546875 0 0.8125 0.390625q0.265625 0.375 0.078125 0.9375l-3.65625 10.25q-0.1875 0.46875 -0.46875 0.703125q-0.265625 0.21875 -0.734375 0.21875q-0.46875 0 -0.75 -0.21875q-0.265625 -0.234375 -0.453125 -0.71875l-2.8125 -8.015625l-2.84375 8.03125q-0.171875 0.46875 -0.453125 0.703125q-0.265625 0.21875 -0.734375 0.21875zm14.074219 0q-0.609375 0 -0.875 -0.40625q-0.25 -0.421875 0.03125 -1.015625l4.578125 -10.140625q0.21875 -0.5 0.53125 -0.71875q0.328125 -0.21875 0.75 -0.21875q0.390625 0 0.703125 0.21875q0.328125 0.21875 0.5625 0.71875l4.578125 10.140625q0.28125 0.609375 0.03125 1.015625q-0.234375 0.40625 -0.828125 0.40625q-0.484375 0 -0.75 -0.234375q-0.265625 -0.234375 -0.46875 -0.71875l-0.875 -2.015625l-5.953125 0l-0.859375 2.015625q-0.21875 0.5 -0.46875 0.734375q-0.234375 0.21875 -0.6875 0.21875zm4.96875 -9.953125l-2.1875 5.21875l4.421875 0l-2.1875 -5.21875l-0.046875 0zm8.907684 9.953125q-1.109375 0 -1.109375 -1.140625l0 -10.09375q0 -1.125 1.125 -1.125l4.1875 0q2.0 0 3.09375 0.96875q1.09375 0.953125 1.09375 2.6875q0 1.375 -0.71875 2.265625q-0.703125 0.890625 -2.03125 1.203125q0.875 0.28125 1.453125 1.328125l1.296875 2.40625q0.296875 0.5625 0.109375 1.03125q-0.171875 0.46875 -0.890625 0.46875q-0.46875 0 -0.765625 -0.203125q-0.28125 -0.203125 -0.515625 -0.609375l-1.75 -3.234375q-0.3125 -0.578125 -0.734375 -0.78125q-0.421875 -0.203125 -1.078125 -0.203125l-1.65625 0l0 3.890625q0 1.140625 -1.109375 1.140625zm1.109375 -6.671875l2.703125 0q2.4375 0 2.4375 -1.984375q0 -1.953125 -2.4375 -1.953125l-2.703125 0l0 3.9375zm10.855774 6.53125q-1.1875 0 -1.1875 -1.171875l0 -9.859375q0 -1.1875 1.1875 -1.1875l3.359375 0q3.0625 0 4.734375 1.578125q1.671875 1.578125 1.671875 4.53125q0 2.921875 -1.671875 4.515625q-1.671875 1.59375 -4.734375 1.59375l-3.359375 0zm1.03125 -1.84375l2.1875 0q4.234375 0 4.234375 -4.265625q0 -4.265625 -4.234375 -4.265625l-2.1875 0l0 8.53125zm16.837341 1.984375q-1.15625 0 -1.15625 -1.1875l0 -9.984375q0 -1.1875 1.1875 -1.1875l6.046875 0q0.90625 0 0.90625 0.875q0 0.890625 -0.90625 0.890625l-5.015625 0l0 3.453125l4.65625 0q0.890625 0 0.890625 0.859375q0 0.90625 -0.890625 0.90625l-4.65625 0l0 4.1875q0 1.1875 -1.0625 1.1875zm13.8411255 0.03125q-1.765625 0 -3.09375 -0.78125q-1.328125 -0.78125 -2.0625 -2.1875q-0.71875 -1.40625 -0.71875 -3.3125q0 -1.9375 0.71875 -3.328125q0.734375 -1.40625 2.046875 -2.171875q1.328125 -0.78125 3.109375 -0.78125q1.78125 0 3.09375 0.78125q1.328125 0.765625 2.046875 2.171875q0.734375 1.390625 0.734375 3.296875q0 1.9375 -0.734375 3.34375q-0.71875 1.40625 -2.046875 2.1875q-1.3125 0.78125 -3.09375 0.78125zm0 -1.90625q1.671875 0 2.609375 -1.15625q0.9375 -1.171875 0.9375 -3.21875q0 -2.09375 -0.921875 -3.234375q-0.921875 -1.140625 -2.625 -1.140625q-1.6875 0 -2.625 1.140625q-0.9375 1.140625 -0.9375 3.234375q0 2.046875 0.9375 3.21875q0.9375 1.15625 2.625 1.15625zm9.227478 1.875q-1.109375 0 -1.109375 -1.140625l0 -10.09375q0 -1.125 1.125 -1.125l4.1875 0q2.0 0 3.09375 0.96875q1.09375 0.953125 1.09375 2.6875q0 1.375 -0.71875 2.265625q-0.703125 0.890625 -2.03125 1.203125q0.875 0.28125 1.453125 1.328125l1.296875 2.40625q0.296875 0.5625 0.109375 1.03125q-0.171875 0.46875 -0.890625 0.46875q-0.46875 0 -0.765625 -0.203125q-0.28125 -0.203125 -0.515625 -0.609375l-1.75 -3.234375q-0.3125 -0.578125 -0.734375 -0.78125q-0.421875 -0.203125 -1.078125 -0.203125l-1.65625 0l0 3.890625q0 1.140625 -1.109375 1.140625zm1.109375 -6.671875l2.703125 0q2.4375 0 2.4375 -1.984375q0 -1.953125 -2.4375 -1.953125l-2.703125 0l0 3.9375z" fill-rule="nonzero"/><path fill="#000000" fill-opacity="0.0" d="m337.37534 153.03937l281.25986 0l0 122.80316l-281.25986 0z" fill-rule="evenodd"/><path fill="#1155cc" d="m371.1047 167.53062l16.375 0l0 8.5l-5.859375 0l0 4.640625l5.484375 0l0 8.171875l-5.484375 0l0 5.65625l6.4375 0l0 8.5l-16.953125 0l0 -35.46875zm37.443604 0l-3.25 15.765625l4.84375 19.703125l-9.890625 0q-1.65625 -5.734375 -2.0 -13.140625q0.53125 3.296875 -0.0625 6.90625l-0.9375 6.234375l-10.328125 0l3.3125 -19.671875l-3.359375 -15.796875l10.3125 0q0.328125 2.109375 1.015625 5.328125q0.546875 2.5 0.078125 2.609375l1.109375 -7.9375l9.15625 0zm23.078308 16.453125l-10.515625 0l0 -6.75q0 -2.375 -0.125 -2.65625q-0.125 -0.296875 -0.515625 -0.296875q-0.484375 0 -0.640625 0.40625q-0.15625 0.40625 -0.15625 2.8125l0 15.671875q0 2.296875 0.140625 2.6875q0.15625 0.390625 0.59375 0.390625q0.375 0 0.53125 -0.390625q0.171875 -0.40625 0.171875 -3.0l0 -5.109375l10.515625 0l0 2.1875q0 5.375 -0.8125 7.78125q-0.796875 2.390625 -3.5625 4.1875q-2.765625 1.796875 -6.75 1.796875q-4.078125 0 -6.828125 -1.53125q-2.734375 -1.53125 -3.625 -4.21875q-0.890625 -2.703125 -0.890625 -7.796875l0 -9.859375q0 -3.703125 0.265625 -5.671875q0.265625 -1.96875 1.640625 -3.828125q1.390625 -1.859375 3.765625 -2.90625q2.390625 -1.0625 5.421875 -1.0625q4.109375 0 6.875 1.640625q2.765625 1.625 3.625 4.09375q0.875 2.453125 0.875 7.34375l0 4.078125zm1.4004822 -16.453125l16.375 0l0 8.5l-5.859375 0l0 4.640625l5.484375 0l0 8.171875l-5.484375 0l0 5.65625l6.4375 0l0 8.5l-16.953125 0l0 -35.46875zm17.724823 0l9.703125 0q3.703125 0 5.8125 0.625q2.109375 0.609375 3.234375 1.84375q1.125 1.234375 1.5 2.90625q0.390625 1.671875 0.390625 4.9375l0 2.9375q0 3.40625 -0.78125 5.125q-0.765625 1.71875 -2.78125 2.625q-2.015625 0.890625 -5.078125 0.890625l-1.484375 0l0 13.578125l-10.515625 0l0 -35.46875zm10.515625 7.515625l-0.46875 7.328125q0 -0.46875 0.234375 -0.46875q0.796875 0 1.03125 -0.296875q0.25 -0.3125 0.25 -1.890625l0 -2.78125q0 -1.34375 -0.28125 -1.609375q-0.28125 -0.28125 -0.765625 -0.28125zm30.302063 -7.515625l0 8.5l-5.203125 0l0 26.96875l-10.515625 0l0 -26.96875l-5.1875 0l0 -8.5l20.90625 0zm10.77124 0l0 35.46875l-10.515625 0l0 -35.46875l10.515625 0zm23.55429 20.625q0 5.125 -0.25 7.375q-0.25 2.25 -1.65625 4.1875q-1.40625 1.9375 -3.734375 2.96875q-2.328125 1.015625 -5.375 1.015625q-2.875 0 -5.234375 -0.953125q-2.34375 -0.96875 -3.796875 -2.9375q-1.453125 -1.96875 -1.71875 -4.1875q-0.265625 -2.21875 -0.265625 -7.46875l0 -5.78125q0 -5.125 0.25 -7.375q0.265625 -2.265625 1.65625 -4.1875q1.40625 -1.9375 3.734375 -2.953125q2.34375 -1.03125 5.375 -1.03125q2.875 0 5.21875 0.96875q2.359375 0.953125 3.8125 2.921875q1.453125 1.953125 1.71875 4.1875q0.265625 2.21875 0.265625 7.46875l0 5.78125zm-10.515625 -11.09375q0 -2.171875 -0.125 -2.46875q-0.109375 -0.3125 -0.328125 -0.3125q-0.234375 0 -0.390625 0.234375q-0.15625 0.21875 -0.15625 2.546875l0 15.75q0 2.78125 0.109375 3.109375q0.125 0.328125 0.375 0.328125q0.25 0 0.375 -0.421875q0.140625 -0.421875 0.140625 -3.265625l0 -15.5zm33.369324 -9.53125l0 35.46875l-9.21875 0l-3.90625 -16.203125l0.875 16.203125l-9.078125 0l0 -35.46875l8.84375 0l4.28125 16.0625l-0.875 -16.0625l9.078125 0zm18.53601 0l5.28125 35.46875l-10.796875 0l-0.4375 -6.0625l-1.53125 0l-0.53125 6.0625l-10.875 0l4.6875 -35.46875l14.203125 0zm-6.375 21.6875q-0.5625 -4.78125 -0.359375 -13.28125q-0.453125 9.765625 -0.71875 13.28125l1.078125 0zm21.786377 -21.6875l0 26.96875l5.328125 0l0 8.5l-15.84375 0l0 -35.46875l10.515625 0z" fill-rule="nonzero"/><path fill="#1155cc" d="m394.94 218.73062l0 35.46875l-10.515625 0l0 -35.46875l10.515625 0zm23.101166 0l0 35.46875l-9.21875 0l-3.90625 -16.203125l0.875 16.203125l-9.078125 0l0 -35.46875l8.84375 0l4.28125 16.0625l-0.875 -16.0625l9.078125 0zm1.7703857 0l7.4375 0q6.453125 0 8.875 0.640625q2.4375 0.625 3.765625 2.15625q1.328125 1.515625 1.65625 3.3125q0.328125 1.78125 0.328125 6.65625l0 11.8125q0 4.65625 -0.484375 6.375q-0.484375 1.71875 -1.734375 2.75q-1.25 1.015625 -2.96875 1.390625q-1.703125 0.375 -4.9375 0.375l-11.9375 0l0 -35.46875zm10.515625 7.515625l0 20.4375q0.515625 0 0.765625 -0.4375q0.25 -0.453125 0.25 -3.59375l0 -13.09375q0 -2.203125 -0.09375 -2.609375q-0.078125 -0.40625 -0.34375 -0.546875q-0.25 -0.15625 -0.578125 -0.15625zm23.577576 -7.515625l0 35.46875l-10.515625 0l0 -35.46875l10.515625 0zm24.476166 0l-4.6875 35.46875l-14.828125 0l-5.328125 -35.46875l11.046875 0q1.703125 14.734375 1.5 24.421875q-0.1875 -9.796875 0.5625 -17.359375l0.6875 -7.0625l11.046875 0zm10.140381 0l0 35.46875l-10.515625 0l0 -35.46875l10.515625 0zm1.7730408 0l7.4375 0q6.453125 0 8.875 0.640625q2.4375 0.625 3.765625 2.15625q1.328125 1.515625 1.6562805 3.3125q0.328125 1.78125 0.328125 6.65625l0 11.8125q0 4.65625 -0.48440552 6.375q-0.484375 1.71875 -1.734375 2.75q-1.25 1.015625 -2.96875 1.390625q-1.703125 0.375 -4.9375 0.375l-11.9375 0l0 -35.46875zm10.515625 7.515625l0 20.4375q0.515625 0 0.765625 -0.4375q0.25 -0.453125 0.25 -3.59375l0 -13.09375q0 -2.203125 -0.09375 -2.609375q-0.078125 -0.40625 -0.34375 -0.546875q-0.25 -0.15625 -0.578125 -0.15625zm34.74948 -7.515625l0 23.40625q0 3.890625 -0.28125 5.59375q-0.265625 1.703125 -1.640625 3.515625q-1.359375 1.8125 -3.5625 2.734375q-2.203125 0.921875 -5.109375 0.921875q-3.203125 0 -5.71875 -1.078125q-2.5 -1.09375 -3.78125 -2.875q-1.265625 -1.796875 -1.5 -3.71875q-0.21875 -1.921875 -0.21875 -7.671875l0 -20.828125l10.515625 0l0 26.15625q0 2.03125 0.09375 2.296875q0.109375 0.265625 0.234375 0.265625q0.21875 0 0.328125 -0.3125q0.109375 -0.3125 0.109375 -2.6875l0 -25.71875l10.53125 0zm18.405762 0l5.28125 35.46875l-10.796875 0l-0.4375 -6.0625l-1.53125 0l-0.53125 6.0625l-10.875 0l4.6875 -35.46875l14.203125 0zm-6.375 21.6875q-0.5625 -4.78125 -0.359375 -13.28125q-0.453125 9.765625 -0.71875 13.28125l1.078125 0zm21.786377 -21.6875l0 26.96875l5.328125 0l0 8.5l-15.84375 0l0 -35.46875l10.515625 0z" fill-rule="nonzero"/><path fill="#000000" fill-opacity="0.0" d="m314.40945 254.38583l305.16537 0l0 40.409454l-305.16537 0z" fill-rule="evenodd"/><path fill="#000000" d="m330.42508 280.1977q-1.90625 0 -3.265625 -0.765625q-1.359375 -0.78125 -2.09375 -2.1875q-0.71875 -1.40625 -0.71875 -3.328125q0 -1.9375 0.71875 -3.328125q0.734375 -1.40625 2.09375 -2.171875q1.359375 -0.78125 3.265625 -0.78125q0.953125 0 1.875 0.25q0.921875 0.234375 1.609375 0.6875q0.453125 0.296875 0.53125 0.703125q0.09375 0.40625 -0.09375 0.75q-0.1875 0.328125 -0.578125 0.453125q-0.375 0.109375 -0.84375 -0.203125q-0.546875 -0.359375 -1.171875 -0.515625q-0.609375 -0.15625 -1.25 -0.15625q-1.859375 0 -2.828125 1.125q-0.96875 1.125 -0.96875 3.1875q0 2.046875 0.96875 3.1875q0.96875 1.125 2.828125 1.125q0.65625 0 1.296875 -0.15625q0.640625 -0.171875 1.203125 -0.53125q0.46875 -0.28125 0.828125 -0.171875q0.375 0.09375 0.546875 0.421875q0.1875 0.3125 0.109375 0.703125q-0.0625 0.375 -0.453125 0.671875q-0.703125 0.5 -1.671875 0.765625q-0.953125 0.265625 -1.9375 0.265625zm5.960541 -0.03125q-0.609375 0 -0.875 -0.40625q-0.25 -0.421875 0.03125 -1.015625l4.578125 -10.140625q0.21875 -0.5 0.53125 -0.71875q0.328125 -0.21875 0.75 -0.21875q0.390625 0 0.703125 0.21875q0.328125 0.21875 0.5625 0.71875l4.578125 10.140625q0.28125 0.609375 0.03125 1.015625q-0.234375 0.40625 -0.828125 0.40625q-0.484375 0 -0.75 -0.234375q-0.265625 -0.234375 -0.46875 -0.71875l-0.875 -2.015625l-5.953125 0l-0.859375 2.015625q-0.21875 0.5 -0.46875 0.734375q-0.234375 0.21875 -0.6875 0.21875zm4.96875 -9.953125l-2.1875 5.21875l4.421875 0l-2.1875 -5.21875l-0.046875 0zm10.508789 9.953125q-1.109375 0 -1.109375 -1.140625l0 -9.359375l-3.375 0q-0.953125 0 -0.953125 -0.9375q0 -0.921875 0.953125 -0.921875l8.96875 0q0.953125 0 0.953125 0.921875q0 0.9375 -0.953125 0.9375l-3.375 0l0 9.359375q0 1.140625 -1.109375 1.140625zm7.8857117 -0.140625q-1.1875 0 -1.1875 -1.171875l0 -9.859375q0 -1.1875 1.1875 -1.1875l6.1875 0q0.890625 0 0.890625 0.875q0 0.890625 -0.890625 0.890625l-5.234375 0l0 3.359375l4.84375 0q0.90625 0 0.90625 0.890625q0 0.890625 -0.90625 0.890625l-4.84375 0l0 3.546875l5.234375 0q0.890625 0 0.890625 0.875q0 0.890625 -0.890625 0.890625l-6.1875 0zm15.014984 0.171875q-2.015625 0 -3.421875 -0.765625q-1.390625 -0.765625 -2.125 -2.15625q-0.71875 -1.40625 -0.71875 -3.328125q0 -1.9375 0.734375 -3.34375q0.75 -1.421875 2.15625 -2.1875q1.40625 -0.78125 3.359375 -0.78125q0.96875 0 1.953125 0.234375q0.984375 0.234375 1.84375 0.796875q0.375 0.21875 0.4375 0.59375q0.0625 0.375 -0.109375 0.703125q-0.171875 0.328125 -0.515625 0.453125q-0.34375 0.125 -0.765625 -0.109375q-0.65625 -0.390625 -1.34375 -0.5625q-0.671875 -0.171875 -1.5 -0.171875q-1.9375 0 -2.9375 1.125q-1.0 1.125 -1.0 3.25q0 2.125 1.015625 3.234375q1.03125 1.109375 3.046875 1.109375q0.578125 0 1.171875 -0.09375q0.59375 -0.09375 1.1875 -0.28125l0 -2.84375l-1.90625 0q-0.90625 0 -0.90625 -0.828125q0 -0.828125 0.90625 -0.828125l2.859375 0q0.890625 0 0.890625 0.90625l0 4.21875q0 0.796875 -0.609375 1.015625q-0.765625 0.28125 -1.765625 0.46875q-0.984375 0.171875 -1.9375 0.171875zm12.3628235 0q-1.765625 0 -3.09375 -0.78125q-1.328125 -0.78125 -2.0625 -2.1875q-0.71875 -1.40625 -0.71875 -3.3125q0 -1.9375 0.71875 -3.328125q0.734375 -1.40625 2.046875 -2.171875q1.328125 -0.78125 3.109375 -0.78125q1.78125 0 3.09375 0.78125q1.328125 0.765625 2.046875 2.171875q0.734375 1.390625 0.734375 3.296875q0 1.9375 -0.734375 3.34375q-0.71875 1.40625 -2.046875 2.1875q-1.3125 0.78125 -3.09375 0.78125zm0 -1.90625q1.671875 0 2.609375 -1.15625q0.9375 -1.171875 0.9375 -3.21875q0 -2.09375 -0.921875 -3.234375q-0.921875 -1.140625 -2.625 -1.140625q-1.6875 0 -2.625 1.140625q-0.9375 1.140625 -0.9375 3.234375q0 2.046875 0.9375 3.21875q0.9375 1.15625 2.625 1.15625zm9.227478 1.875q-1.109375 0 -1.109375 -1.140625l0 -10.09375q0 -1.125 1.125 -1.125l4.1875 0q2.0 0 3.09375 0.96875q1.09375 0.953125 1.09375 2.6875q0 1.375 -0.71875 2.265625q-0.703125 0.890625 -2.03125 1.203125q0.875 0.28125 1.453125 1.328125l1.296875 2.40625q0.296875 0.5625 0.109375 1.03125q-0.171875 0.46875 -0.890625 0.46875q-0.46875 0 -0.765625 -0.203125q-0.28125 -0.203125 -0.515625 -0.609375l-1.75 -3.234375q-0.3125 -0.578125 -0.734375 -0.78125q-0.421875 -0.203125 -1.078125 -0.203125l-1.65625 0l0 3.890625q0 1.140625 -1.109375 1.140625zm1.109375 -6.671875l2.703125 0q2.4375 0 2.4375 -1.984375q0 -1.953125 -2.4375 -1.953125l-2.703125 0l0 3.9375zm13.560852 6.671875q-1.109375 0 -1.109375 -1.15625l0 -4.59375l-3.71875 -5.21875q-0.21875 -0.3125 -0.203125 -0.671875q0.03125 -0.359375 0.296875 -0.609375q0.265625 -0.25 0.734375 -0.25q0.671875 0 1.171875 0.71875l2.859375 4.046875l2.875 -4.046875q0.28125 -0.390625 0.53125 -0.546875q0.265625 -0.171875 0.640625 -0.171875q0.6875 0 0.890625 0.5q0.21875 0.5 -0.171875 1.046875l-3.6875 5.21875l0 4.578125q0 1.15625 -1.109375 1.15625zm6.8452454 -6.140625q-0.59375 0 -0.953125 -0.359375q-0.359375 -0.359375 -0.359375 -0.921875q0 -0.5625 0.359375 -0.921875q0.359375 -0.359375 0.953125 -0.359375q0.59375 0 0.9375 0.359375q0.34375 0.359375 0.34375 0.921875q0 0.5625 -0.34375 0.921875q-0.34375 0.359375 -0.9375 0.359375zm0 6.09375q-0.59375 0 -0.953125 -0.359375q-0.359375 -0.375 -0.359375 -0.953125q0 -0.546875 0.359375 -0.90625q0.359375 -0.359375 0.953125 -0.359375q0.59375 0 0.9375 0.359375q0.34375 0.359375 0.34375 0.90625q0 0.578125 -0.34375 0.953125q-0.34375 0.359375 -0.9375 0.359375zm9.25885 0.046875q-1.109375 0 -1.109375 -1.140625l0 -10.09375q0 -1.125 1.125 -1.125l4.1875 0q2.0 0 3.09375 1.015625q1.09375 1.0 1.09375 2.796875q0 1.796875 -1.09375 2.8125q-1.09375 1.015625 -3.09375 1.015625l-3.09375 0l0 3.578125q0 1.140625 -1.109375 1.140625zm1.109375 -6.46875l2.75 0q2.390625 0 2.390625 -2.078125q0 -2.0625 -2.390625 -2.0625l-2.75 0l0 4.140625zm12.614532 6.5q-1.4375 0 -2.484375 -0.53125q-1.03125 -0.546875 -1.59375 -1.53125q-0.5625 -0.984375 -0.5625 -2.34375q0 -1.3125 0.546875 -2.296875q0.546875 -0.984375 1.5 -1.546875q0.96875 -0.5625 2.203125 -0.5625q1.796875 0 2.84375 1.140625q1.046875 1.140625 1.046875 3.109375q0 0.640625 -0.828125 0.640625l-5.234375 0q0.25 2.28125 2.609375 2.28125q0.4375 0 1.0 -0.109375q0.5625 -0.125 1.078125 -0.390625q0.4375 -0.265625 0.75 -0.171875q0.3125 0.09375 0.4375 0.375q0.140625 0.28125 0.046875 0.625q-0.09375 0.328125 -0.5 0.5625q-0.59375 0.390625 -1.390625 0.578125q-0.78125 0.171875 -1.46875 0.171875zm-0.3125 -7.34375q-0.953125 0 -1.546875 0.59375q-0.578125 0.578125 -0.703125 1.59375l4.265625 0q-0.0625 -1.0625 -0.578125 -1.625q-0.515625 -0.5625 -1.4375 -0.5625zm6.6417847 7.3125q-1.109375 0 -1.109375 -1.109375l0 -6.546875q0 -1.09375 1.0625 -1.09375q1.046875 0 1.046875 1.09375l0 0.53125q0.625 -1.484375 2.671875 -1.65625q0.75 -0.09375 0.828125 0.84375q0.09375 0.921875 -0.890625 1.015625l-0.390625 0.046875q-2.125 0.203125 -2.125 2.171875l0 3.59375q0 1.109375 -1.09375 1.109375zm8.705933 0.03125q-0.75 0 -1.59375 -0.15625q-0.828125 -0.15625 -1.484375 -0.53125q-0.359375 -0.21875 -0.453125 -0.515625q-0.078125 -0.296875 0.03125 -0.5625q0.109375 -0.28125 0.375 -0.390625q0.28125 -0.125 0.640625 0.046875q0.6875 0.328125 1.296875 0.453125q0.609375 0.125 1.203125 0.125q0.828125 0 1.234375 -0.28125q0.40625 -0.28125 0.40625 -0.75q0 -0.734375 -1.078125 -0.9375l-1.734375 -0.328125q-2.1875 -0.421875 -2.1875 -2.28125q0 -0.84375 0.453125 -1.4375q0.453125 -0.609375 1.265625 -0.9375q0.828125 -0.328125 1.875 -0.328125q1.53125 0 2.71875 0.671875q0.328125 0.171875 0.390625 0.484375q0.0625 0.296875 -0.0625 0.5625q-0.125 0.265625 -0.40625 0.390625q-0.28125 0.109375 -0.640625 -0.078125q-0.546875 -0.265625 -1.046875 -0.390625q-0.484375 -0.125 -0.9375 -0.125q-0.84375 0 -1.25 0.296875q-0.40625 0.296875 -0.40625 0.78125q0 0.765625 0.984375 0.9375l1.734375 0.328125q1.125 0.203125 1.703125 0.765625q0.578125 0.546875 0.578125 1.484375q0 1.265625 -0.984375 1.984375q-0.984375 0.71875 -2.625 0.71875zm9.206055 0q-1.3125 0 -2.28125 -0.53125q-0.96875 -0.546875 -1.515625 -1.53125q-0.53125 -1.0 -0.53125 -2.359375q0 -1.34375 0.53125 -2.328125q0.546875 -1.0 1.515625 -1.53125q0.96875 -0.53125 2.28125 -0.53125q1.328125 0 2.296875 0.53125q0.96875 0.53125 1.5 1.53125q0.546875 0.984375 0.546875 2.328125q0 1.359375 -0.546875 2.359375q-0.53125 0.984375 -1.5 1.53125q-0.96875 0.53125 -2.296875 0.53125zm0 -1.640625q0.96875 0 1.5625 -0.703125q0.59375 -0.703125 0.59375 -2.078125q0 -1.375 -0.59375 -2.0625q-0.59375 -0.6875 -1.5625 -0.6875q-0.96875 0 -1.5625 0.6875q-0.578125 0.6875 -0.578125 2.0625q0 1.375 0.578125 2.078125q0.59375 0.703125 1.5625 0.703125zm7.199707 1.609375q-1.078125 0 -1.078125 -1.109375l0 -6.546875q0 -1.09375 1.0625 -1.09375q1.046875 0 1.046875 1.09375l0 0.359375q0.4375 -0.734375 1.171875 -1.109375q0.734375 -0.375 1.65625 -0.375q3.0 0 3.0 3.484375l0 4.1875q0 1.109375 -1.078125 1.109375q-1.09375 0 -1.09375 -1.109375l0 -4.09375q0 -0.984375 -0.375 -1.4375q-0.359375 -0.453125 -1.140625 -0.453125q-0.953125 0 -1.515625 0.609375q-0.5625 0.59375 -0.5625 1.578125l0 3.796875q0 1.109375 -1.09375 1.109375zm11.855621 0.03125q-0.921875 0 -1.640625 -0.34375q-0.71875 -0.359375 -1.125 -0.96875q-0.40625 -0.609375 -0.40625 -1.375q0 -0.9375 0.484375 -1.484375q0.484375 -0.546875 1.578125 -0.78125q1.09375 -0.25 2.921875 -0.25l0.609375 0l0 -0.359375q0 -0.859375 -0.390625 -1.234375q-0.375 -0.390625 -1.28125 -0.390625q-0.5 0 -1.078125 0.125q-0.578125 0.109375 -1.21875 0.40625q-0.421875 0.1875 -0.703125 0.046875q-0.265625 -0.140625 -0.359375 -0.453125q-0.09375 -0.328125 0.03125 -0.65625q0.125 -0.34375 0.53125 -0.5q0.796875 -0.328125 1.53125 -0.453125q0.734375 -0.140625 1.34375 -0.140625q1.859375 0 2.75 0.859375q0.90625 0.84375 0.90625 2.65625l0 4.15625q0 1.109375 -1.0 1.109375q-1.03125 0 -1.03125 -1.109375l0 -0.390625q-0.296875 0.71875 -0.9375 1.125q-0.640625 0.40625 -1.515625 0.40625zm0.4375 -1.484375q0.859375 0 1.421875 -0.59375q0.5625 -0.59375 0.5625 -1.484375l0 -0.390625l-0.59375 0q-1.625 0 -2.265625 0.25q-0.625 0.25 -0.625 0.921875q0 0.5625 0.390625 0.9375q0.40625 0.359375 1.109375 0.359375zm9.134674 1.484375q-2.890625 0 -2.890625 -3.234375l0 -8.203125q0 -1.09375 1.078125 -1.09375q1.09375 0 1.09375 1.09375l0 8.09375q0 1.5625 1.296875 1.5625q0.140625 0 0.25 0q0.125 -0.015625 0.25 -0.03125q0.25 -0.046875 0.328125 0.125q0.09375 0.15625 0.09375 0.671875q0 0.421875 -0.1875 0.671875q-0.171875 0.234375 -0.5625 0.296875q-0.359375 0.046875 -0.75 0.046875zm3.615265 0.328125q-0.125 0.421875 -0.453125 0.546875q-0.3125 0.125 -0.640625 0.03125q-0.3125 -0.09375 -0.5 -0.375q-0.1875 -0.265625 -0.046875 -0.703125l4.015625 -12.421875q0.125 -0.421875 0.4375 -0.5625q0.3125 -0.140625 0.625 -0.03125q0.328125 0.09375 0.515625 0.375q0.1875 0.28125 0.046875 0.703125l-4.0 12.4375zm6.3299255 -0.359375q-1.109375 0 -1.109375 -1.140625l0 -10.09375q0 -1.125 1.125 -1.125l4.1875 0q2.0 0 3.09375 1.015625q1.0937805 1.0 1.0937805 2.796875q0 1.796875 -1.0937805 2.8125q-1.09375 1.015625 -3.09375 1.015625l-3.09375 0l0 3.578125q0 1.140625 -1.109375 1.140625zm1.109375 -6.46875l2.75 0q2.390625 0 2.390625 -2.078125q0 -2.0625 -2.390625 -2.0625l-2.75 0l0 4.140625zm9.812042 6.46875q-1.109375 0 -1.109375 -1.109375l0 -6.546875q0 -1.09375 1.0625 -1.09375q1.046875 0 1.046875 1.09375l0 0.53125q0.625 -1.484375 2.671875 -1.65625q0.75 -0.09375 0.828125 0.84375q0.09375 0.921875 -0.890625 1.015625l-0.390625 0.046875q-2.125 0.203125 -2.125 2.171875l0 3.59375q0 1.109375 -1.09375 1.109375zm9.403931 0.03125q-1.3125 0 -2.28125 -0.53125q-0.96875 -0.546875 -1.515625 -1.53125q-0.53125 -1.0 -0.53125 -2.359375q0 -1.34375 0.53125 -2.328125q0.546875 -1.0 1.515625 -1.53125q0.96875 -0.53125 2.28125 -0.53125q1.328125 0 2.296875 0.53125q0.96875 0.53125 1.5 1.53125q0.546875 0.984375 0.546875 2.328125q0 1.359375 -0.546875 2.359375q-0.53125 0.984375 -1.5 1.53125q-0.96875 0.53125 -2.296875 0.53125zm0 -1.640625q0.96875 0 1.5625 -0.703125q0.59375 -0.703125 0.59375 -2.078125q0 -1.375 -0.59375 -2.0625q-0.59375 -0.6875 -1.5625 -0.6875q-0.96875 0 -1.5625 0.6875q-0.578125 0.6875 -0.578125 2.0625q0 1.375 0.578125 2.078125q0.59375 0.703125 1.5625 0.703125zm7.706726 1.609375q-1.09375 0 -1.09375 -1.109375l0 -5.875l-0.796875 0q-0.875 0 -0.875 -0.8125q0 -0.8125 0.875 -0.8125l0.796875 0l0 -0.015625q0 -1.796875 0.890625 -2.6875q0.90625 -0.890625 2.609375 -1.046875l0.578125 -0.046875q0.453125 -0.03125 0.65625 0.1875q0.21875 0.21875 0.21875 0.546875q0.015625 0.3125 -0.15625 0.578125q-0.171875 0.25 -0.5 0.28125l-0.25 0.015625q-0.984375 0.0625 -1.4375 0.5q-0.453125 0.4375 -0.453125 1.3125l0 0.375l1.484375 0q0.859375 0 0.859375 0.8125q0 0.8125 -0.859375 0.8125l-1.484375 0l0 5.875q0 1.109375 -1.0625 1.109375zm8.582092 0.03125q-1.4375 0 -2.484375 -0.53125q-1.03125 -0.546875 -1.59375 -1.53125q-0.5625 -0.984375 -0.5625 -2.34375q0 -1.3125 0.546875 -2.296875q0.546875 -0.984375 1.5 -1.546875q0.96875 -0.5625 2.203125 -0.5625q1.796875 0 2.84375 1.140625q1.046875 1.140625 1.046875 3.109375q0 0.640625 -0.828125 0.640625l-5.234375 0q0.25 2.28125 2.609375 2.28125q0.4375 0 1.0 -0.109375q0.5625 -0.125 1.078125 -0.390625q0.4375 -0.265625 0.75 -0.171875q0.3125 0.09375 0.4375 0.375q0.140625 0.28125 0.046875 0.625q-0.09375 0.328125 -0.5 0.5625q-0.59375 0.390625 -1.390625 0.578125q-0.78125 0.171875 -1.46875 0.171875zm-0.3125 -7.34375q-0.953125 0 -1.546875 0.59375q-0.578125 0.578125 -0.703125 1.59375l4.265625 0q-0.0625 -1.0625 -0.578125 -1.625q-0.515625 -0.5625 -1.4375 -0.5625zm8.641785 7.34375q-0.75 0 -1.59375 -0.15625q-0.828125 -0.15625 -1.484375 -0.53125q-0.359375 -0.21875 -0.453125 -0.515625q-0.078125 -0.296875 0.03125 -0.5625q0.109375 -0.28125 0.375 -0.390625q0.28125 -0.125 0.640625 0.046875q0.6875 0.328125 1.296875 0.453125q0.609375 0.125 1.203125 0.125q0.828125 0 1.234375 -0.28125q0.40625 -0.28125 0.40625 -0.75q0 -0.734375 -1.078125 -0.9375l-1.734375 -0.328125q-2.1875 -0.421875 -2.1875 -2.28125q0 -0.84375 0.453125 -1.4375q0.453125 -0.609375 1.265625 -0.9375q0.828125 -0.328125 1.875 -0.328125q1.53125 0 2.71875 0.671875q0.328125 0.171875 0.390625 0.484375q0.0625 0.296875 -0.0625 0.5625q-0.125 0.265625 -0.40625 0.390625q-0.28125 0.109375 -0.640625 -0.078125q-0.546875 -0.265625 -1.046875 -0.390625q-0.484375 -0.125 -0.9375 -0.125q-0.84375 0 -1.25 0.296875q-0.40625 0.296875 -0.40625 0.78125q0 0.765625 0.984375 0.9375l1.734375 0.328125q1.125 0.203125 1.703125 0.765625q0.578125 0.546875 0.578125 1.484375q0 1.265625 -0.984375 1.984375q-0.984375 0.71875 -2.625 0.71875zm8.456055 0q-0.75 0 -1.59375 -0.15625q-0.828125 -0.15625 -1.484375 -0.53125q-0.359375 -0.21875 -0.453125 -0.515625q-0.078125 -0.296875 0.03125 -0.5625q0.109375 -0.28125 0.375 -0.390625q0.28125 -0.125 0.640625 0.046875q0.6875 0.328125 1.296875 0.453125q0.609375 0.125 1.203125 0.125q0.828125 0 1.234375 -0.28125q0.40625 -0.28125 0.40625 -0.75q0 -0.734375 -1.078125 -0.9375l-1.734375 -0.328125q-2.1875 -0.421875 -2.1875 -2.28125q0 -0.84375 0.453125 -1.4375q0.453125 -0.609375 1.265625 -0.9375q0.828125 -0.328125 1.875 -0.328125q1.53125 0 2.71875 0.671875q0.328125 0.171875 0.390625 0.484375q0.0625 0.296875 -0.0625 0.5625q-0.125 0.265625 -0.40625 0.390625q-0.28125 0.109375 -0.640625 -0.078125q-0.546875 -0.265625 -1.046875 -0.390625q-0.484375 -0.125 -0.9375 -0.125q-0.84375 0 -1.25 0.296875q-0.40625 0.296875 -0.40625 0.78125q0 0.765625 0.984375 0.9375l1.734375 0.328125q1.125 0.203125 1.703125 0.765625q0.578125 0.546875 0.578125 1.484375q0 1.265625 -0.984375 1.984375q-0.984375 0.71875 -2.625 0.71875zm6.4248657 -10.375q-0.609375 0 -0.953125 -0.296875q-0.328125 -0.3125 -0.328125 -0.84375q0 -0.5625 0.328125 -0.859375q0.34375 -0.296875 0.953125 -0.296875q1.28125 0 1.28125 1.15625q0 1.140625 -1.28125 1.140625zm0 10.328125q-0.515625 0 -0.796875 -0.3125q-0.28125 -0.3125 -0.28125 -0.875l0 -6.359375q0 -1.171875 1.078125 -1.171875q1.09375 0 1.09375 1.171875l0 6.359375q0 0.5625 -0.28125 0.875q-0.28125 0.3125 -0.8125 0.3125zm7.199829 0.046875q-1.312439 0 -2.281189 -0.53125q-0.96875 -0.546875 -1.515625 -1.53125q-0.53125 -1.0 -0.53125 -2.359375q0 -1.34375 0.53125 -2.328125q0.546875 -1.0 1.515625 -1.53125q0.96875 -0.53125 2.281189 -0.53125q1.328125 0 2.296875 0.53125q0.96875 0.53125 1.5 1.53125q0.546875 0.984375 0.546875 2.328125q0 1.359375 -0.546875 2.359375q-0.53125 0.984375 -1.5 1.53125q-0.96875 0.53125 -2.296875 0.53125zm0 -1.640625q0.96875 0 1.5625 -0.703125q0.59375 -0.703125 0.59375 -2.078125q0 -1.375 -0.59375 -2.0625q-0.59375 -0.6875 -1.5625 -0.6875q-0.96868896 0 -1.562439 0.6875q-0.578125 0.6875 -0.578125 2.0625q0 1.375 0.578125 2.078125q0.59375 0.703125 1.562439 0.703125zm7.199707 1.609375q-1.078125 0 -1.078125 -1.109375l0 -6.546875q0 -1.09375 1.0625 -1.09375q1.046875 0 1.046875 1.09375l0 0.359375q0.4375 -0.734375 1.171875 -1.109375q0.734375 -0.375 1.65625 -0.375q3.0 0 3.0 3.484375l0 4.1875q0 1.109375 -1.078125 1.109375q-1.09375 0 -1.09375 -1.109375l0 -4.09375q0 -0.984375 -0.375 -1.4375q-0.359375 -0.453125 -1.140625 -0.453125q-0.953125 0 -1.515625 0.609375q-0.5625 0.59375 -0.5625 1.578125l0 3.796875q0 1.109375 -1.09375 1.109375zm11.855652 0.03125q-0.921875 0 -1.640625 -0.34375q-0.71875 -0.359375 -1.125 -0.96875q-0.40625 -0.609375 -0.40625 -1.375q0 -0.9375 0.484375 -1.484375q0.484375 -0.546875 1.578125 -0.78125q1.09375 -0.25 2.921875 -0.25l0.609375 0l0 -0.359375q0 -0.859375 -0.390625 -1.234375q-0.375 -0.390625 -1.28125 -0.390625q-0.5 0 -1.078125 0.125q-0.578125 0.109375 -1.21875 0.40625q-0.421875 0.1875 -0.703125 0.046875q-0.265625 -0.140625 -0.359375 -0.453125q-0.09375 -0.328125 0.03125 -0.65625q0.125 -0.34375 0.53125 -0.5q0.796875 -0.328125 1.53125 -0.453125q0.734375 -0.140625 1.34375 -0.140625q1.859375 0 2.75 0.859375q0.90625 0.84375 0.90625 2.65625l0 4.15625q0 1.109375 -1.0 1.109375q-1.03125 0 -1.03125 -1.109375l0 -0.390625q-0.296875 0.71875 -0.9375 1.125q-0.640625 0.40625 -1.515625 0.40625zm0.4375 -1.484375q0.859375 0 1.421875 -0.59375q0.5625 -0.59375 0.5625 -1.484375l0 -0.390625l-0.59375 0q-1.625 0 -2.265625 0.25q-0.625 0.25 -0.625 0.921875q0 0.5625 0.390625 0.9375q0.40625 0.359375 1.109375 0.359375zm9.134705 1.484375q-2.890625 0 -2.890625 -3.234375l0 -8.203125q0 -1.09375 1.078125 -1.09375q1.09375 0 1.09375 1.09375l0 8.09375q0 1.5625 1.296875 1.5625q0.140625 0 0.25 0q0.125 -0.015625 0.25 -0.03125q0.25 -0.046875 0.328125 0.125q0.09375 0.15625 0.09375 0.671875q0 0.421875 -0.1875 0.671875q-0.171875 0.234375 -0.5625 0.296875q-0.359375 0.046875 -0.75 0.046875z" fill-rule="nonzero"/></g></svg>