<svg version="1.1" viewBox="0.0 0.0 960.0 720.0" fill="none" stroke="none" stroke-linecap="square" stroke-miterlimit="10" xmlns:xlink="http://www.w3.org/1999/xlink" xmlns="http://www.w3.org/2000/svg"><clipPath id="p.0"><path d="m0 0l960.0 0l0 720.0l-960.0 0l0 -720.0z" clip-rule="nonzero"/></clipPath><g clip-path="url(#p.0)"><path fill="#000000" fill-opacity="0.0" d="m0 0l960.0 0l0 720.0l-960.0 0z" fill-rule="evenodd"/><path fill="#cfe2f3" d="m296.6299 198.37007l366.74014 0l0 197.44884l-366.74014 0z" fill-rule="evenodd"/><path stroke="#000000" stroke-width="1.0" stroke-linejoin="round" stroke-linecap="butt" d="m296.6299 198.37007l366.74014 0l0 197.44884l-366.74014 0z" fill-rule="evenodd"/><path fill="#cfe2f3" d="m368.26248 66.11811l35.811005 0l0 132.25195l-35.811005 0z" fill-rule="evenodd"/><path stroke="#000000" stroke-width="1.0" stroke-linejoin="round" stroke-linecap="butt" d="m368.26248 66.11811l35.811005 0l0 132.25195l-35.811005 0z" fill-rule="evenodd"/><path fill="#cc0000" d="m352.6509 63.354332l0 0c0 -15.21175 14.594818 -27.543308 32.59842 -27.543308l0 0c18.003632 0 32.59845 12.331558 32.59845 27.543308l0 0c0 15.211746 -14.594818 27.543304 -32.59845 27.543304l0 0c-18.003601 0 -32.59842 -12.331558 -32.59842 -27.543304z" fill-rule="evenodd"/><path stroke="#000000" stroke-width="1.0" stroke-linejoin="round" stroke-linecap="butt" d="m352.6509 63.354332l0 0c0 -15.21175 14.594818 -27.543308 32.59842 -27.543308l0 0c18.003632 0 32.59845 12.331558 32.59845 27.543308l0 0c0 15.211746 -14.594818 27.543304 -32.59845 27.543304l0 0c-18.003601 0 -32.59842 -12.331558 -32.59842 -27.543304z" fill-rule="evenodd"/><path fill="#cfe2f3" d="m338.8459 103.77165l92.8064 0l0 0c12.157898 0 22.013794 4.727455 22.013794 10.559059c0 5.831604 -9.855896 10.5590515 -22.013794 10.5590515l-92.8064 0l0 0c-12.157898 0 -22.013824 -4.7274475 -22.013824 -10.5590515c0 -5.831604 9.8559265 -10.559059 22.013824 -10.559059z" fill-rule="evenodd"/><path stroke="#000000" stroke-width="1.0" stroke-linejoin="round" stroke-linecap="butt" d="m338.8459 103.77165l92.8064 0l0 0c12.157898 0 22.013794 4.727455 22.013794 10.559059c0 5.831604 -9.855896 10.5590515 -22.013794 10.5590515l-92.8064 0l0 0c-12.157898 0 -22.013824 -4.7274475 -22.013824 -10.5590515c0 -5.831604 9.8559265 -10.559059 22.013824 -10.559059z" fill-rule="evenodd"/><path fill="#cfe2f3" d="m332.61722 146.4042l105.26468 0l0 0c13.7899475 0 24.968903 4.7274475 24.968903 10.5590515c0 5.831604 -11.178955 10.5590515 -24.968903 10.5590515l-105.26468 0l0 0c-13.7899475 0 -24.968933 -4.7274475 -24.968933 -10.5590515c0 -5.831604 11.178986 -10.5590515 24.968933 -10.5590515z" fill-rule="evenodd"/><path stroke="#000000" stroke-width="1.0" stroke-linejoin="round" stroke-linecap="butt" d="m332.61722 146.4042l105.26468 0l0 0c13.7899475 0 24.968903 4.7274475 24.968903 10.5590515c0 5.831604 -11.178955 10.5590515 -24.968903 10.5590515l-105.26468 0l0 0c-13.7899475 0 -24.968933 -4.7274475 -24.968933 -10.5590515c0 -5.831604 11.178986 -10.5590515 24.968933 -10.5590515z" fill-rule="evenodd"/><path fill="#cfe2f3" d="m558.7559 66.11811l35.811035 0l0 132.25195l-35.811035 0z" fill-rule="evenodd"/><path stroke="#000000" stroke-width="1.0" stroke-linejoin="round" stroke-linecap="butt" d="m558.7559 66.11811l35.811035 0l0 132.25195l-35.811035 0z" fill-rule="evenodd"/><path fill="#cc0000" d="m543.14435 63.354332l0 0c0 -15.21175 14.594849 -27.543308 32.59845 -27.543308l0 0c18.003601 0 32.59839 12.331558 32.59839 27.543308l0 0c0 15.211746 -14.594788 27.543304 -32.59839 27.543304l0 0c-18.003601 0 -32.59845 -12.331558 -32.59845 -27.543304z" fill-rule="evenodd"/><path stroke="#000000" stroke-width="1.0" stroke-linejoin="round" stroke-linecap="butt" d="m543.14435 63.354332l0 0c0 -15.21175 14.594849 -27.543308 32.59845 -27.543308l0 0c18.003601 0 32.59839 12.331558 32.59839 27.543308l0 0c0 15.211746 -14.594788 27.543304 -32.59839 27.543304l0 0c-18.003601 0 -32.59845 -12.331558 -32.59845 -27.543304z" fill-rule="evenodd"/><path fill="#cfe2f3" d="m529.3393 103.77165l92.8064 0l0 0c12.157898 0 22.013855 4.727455 22.013855 10.559059c0 5.831604 -9.855957 10.5590515 -22.013855 10.5590515l-92.8064 0l0 0c-12.157898 0 -22.013794 -4.7274475 -22.013794 -10.5590515c0 -5.831604 9.855896 -10.559059 22.013794 -10.559059z" fill-rule="evenodd"/><path stroke="#000000" stroke-width="1.0" stroke-linejoin="round" stroke-linecap="butt" d="m529.3393 103.77165l92.8064 0l0 0c12.157898 0 22.013855 4.727455 22.013855 10.559059c0 5.831604 -9.855957 10.5590515 -22.013855 10.5590515l-92.8064 0l0 0c-12.157898 0 -22.013794 -4.7274475 -22.013794 -10.5590515c0 -5.831604 9.855896 -10.559059 22.013794 -10.559059z" fill-rule="evenodd"/><path fill="#cfe2f3" d="m523.11066 146.4042l105.26465 0l0 0c13.789978 0 24.968933 4.7274475 24.968933 10.5590515c0 5.831604 -11.178955 10.5590515 -24.968933 10.5590515l-105.26465 0l0 0c-13.7899475 0 -24.968933 -4.7274475 -24.968933 -10.5590515c0 -5.831604 11.178986 -10.5590515 24.968933 -10.5590515z" fill-rule="evenodd"/><path stroke="#000000" stroke-width="1.0" stroke-linejoin="round" stroke-linecap="butt" d="m523.11066 146.4042l105.26465 0l0 0c13.789978 0 24.968933 4.7274475 24.968933 10.5590515c0 5.831604 -11.178955 10.5590515 -24.968933 10.5590515l-105.26465 0l0 0c-13.7899475 0 -24.968933 -4.7274475 -24.968933 -10.5590515c0 -5.831604 11.178986 -10.5590515 24.968933 -10.5590515z" fill-rule="evenodd"/><path fill="#ffffff" d="m499.0551 245.5935l0 0c0 -9.129547 7.4009705 -16.530518 16.530518 -16.530518l122.15155 0c4.3841553 0 8.588806 1.7416077 11.688843 4.841675c3.1000977 3.1000824 4.841675 7.3046722 4.841675 11.688843l0 66.12009c0 9.129547 -7.40094 16.530487 -16.530518 16.530487l-122.15155 0c-9.129547 0 -16.530518 -7.40094 -16.530518 -16.530487z" fill-rule="evenodd"/><path stroke="#000000" stroke-width="1.0" stroke-linejoin="round" stroke-linecap="butt" d="m499.0551 245.5935l0 0c0 -9.129547 7.4009705 -16.530518 16.530518 -16.530518l122.15155 0c4.3841553 0 8.588806 1.7416077 11.688843 4.841675c3.1000977 3.1000824 4.841675 7.3046722 4.841675 11.688843l0 66.12009c0 9.129547 -7.40094 16.530487 -16.530518 16.530487l-122.15155 0c-9.129547 0 -16.530518 -7.40094 -16.530518 -16.530487z" fill-rule="evenodd"/><path fill="#ffff00" d="m613.5906 255.4895l-14.902466 3.4419556l0 -6.883911zm-10.818909 -16.959976l-6.788269 9.278564l-7.494751 -4.867584zm-26.11023 -7.0242767l5.2996216 9.67865l-10.599304 0zm-26.113708 7.0242767l14.286438 4.41098l-7.494751 4.867584zm-10.81543 16.959976l14.902405 -3.4419556l0 6.883911zm10.81543 16.957764l6.791687 -9.276367l7.494751 4.8676147zm26.113708 7.0264893l-5.2996826 -9.67865l10.599304 0zm26.11023 -7.0264893l-14.28302 -4.4087524l7.494751 -4.8676147zm-44.57483 -16.957764c0 -6.623062 8.266907 -11.992126 18.4646 -11.992126c10.197693 0 18.464539 5.3690643 18.464539 11.992126c0 6.6230774 -8.266846 11.992126 -18.464539 11.992126c-10.197693 0 -18.4646 -5.369049 -18.4646 -11.992126z" fill-rule="evenodd"/><path stroke="#000000" stroke-width="2.0" stroke-linejoin="round" stroke-linecap="butt" d="m613.5906 255.4895l-14.902466 3.4419556l0 -6.883911zm-10.818909 -16.959976l-6.788269 9.278564l-7.494751 -4.867584zm-26.11023 -7.0242767l5.2996216 9.67865l-10.599304 0zm-26.113708 7.0242767l14.286438 4.41098l-7.494751 4.867584zm-10.81543 16.959976l14.902405 -3.4419556l0 6.883911zm10.81543 16.957764l6.791687 -9.276367l7.494751 4.8676147zm26.113708 7.0264893l-5.2996826 -9.67865l10.599304 0zm26.11023 -7.0264893l-14.28302 -4.4087524l7.494751 -4.8676147zm-44.57483 -16.957764c0 -6.623062 8.266907 -11.992126 18.4646 -11.992126c10.197693 0 18.464539 5.3690643 18.464539 11.992126c0 6.6230774 -8.266846 11.992126 -18.464539 11.992126c-10.197693 0 -18.4646 -5.369049 -18.4646 -11.992126z" fill-rule="evenodd"/><path fill="#ffffff" d="m308.56168 245.5935l0 0c0 -9.129547 7.4009705 -16.530518 16.530518 -16.530518l122.15158 0c4.3841553 0 8.588745 1.7416077 11.688843 4.841675c3.1000671 3.1000824 4.841675 7.3046722 4.841675 11.688843l0 66.12009c0 9.129547 -7.4009705 16.530487 -16.530518 16.530487l-122.15158 0c-9.129547 0 -16.530518 -7.40094 -16.530518 -16.530487z" fill-rule="evenodd"/><path stroke="#000000" stroke-width="1.0" stroke-linejoin="round" stroke-linecap="butt" d="m308.56168 245.5935l0 0c0 -9.129547 7.4009705 -16.530518 16.530518 -16.530518l122.15158 0c4.3841553 0 8.588745 1.7416077 11.688843 4.841675c3.1000671 3.1000824 4.841675 7.3046722 4.841675 11.688843l0 66.12009c0 9.129547 -7.4009705 16.530487 -16.530518 16.530487l-122.15158 0c-9.129547 0 -16.530518 -7.40094 -16.530518 -16.530487z" fill-rule="evenodd"/><path fill="#ffffff" d="m611.6324 385.72702l-263.2648 0l-7.044739 -7.044739l0 -35.22296l0 0l277.35434 0l0 0l0 35.22296z" fill-rule="evenodd"/><path stroke="#000000" stroke-width="1.0" stroke-linejoin="round" stroke-linecap="butt" d="m611.6324 385.72702l-263.2648 0l-7.044739 -7.044739l0 -35.22296l0 0l277.35434 0l0 0l0 35.22296z" fill-rule="evenodd"/><path fill="#000000" fill-opacity="0.0" d="m341.32285 364.59317l277.35434 0" fill-rule="evenodd"/><path stroke="#000000" stroke-width="1.0" stroke-linejoin="round" stroke-linecap="butt" d="m341.32285 364.59317l277.35434 0" fill-rule="evenodd"/><path fill="#000000" fill-opacity="0.0" d="m376.53018 344.38846l0 41.322815" fill-rule="evenodd"/><path stroke="#000000" stroke-width="1.0" stroke-linejoin="round" stroke-linecap="butt" d="m376.53018 344.38846l0 41.322815" fill-rule="evenodd"/><path fill="#000000" fill-opacity="0.0" d="m404.0735 343.93176l0 41.322845" fill-rule="evenodd"/><path stroke="#000000" stroke-width="1.0" stroke-linejoin="round" stroke-linecap="butt" d="m404.0735 343.93176l0 41.322845" fill-rule="evenodd"/><path fill="#000000" fill-opacity="0.0" d="m429.12073 344.38846l0 41.322815" fill-rule="evenodd"/><path stroke="#000000" stroke-width="1.0" stroke-linejoin="round" stroke-linecap="butt" d="m429.12073 344.38846l0 41.322815" fill-rule="evenodd"/><path fill="#000000" fill-opacity="0.0" d="m480.0 344.38846l0 41.322815" fill-rule="evenodd"/><path stroke="#000000" stroke-width="1.0" stroke-linejoin="round" stroke-linecap="butt" d="m480.0 344.38846l0 41.322815" fill-rule="evenodd"/><path fill="#000000" fill-opacity="0.0" d="m453.66666 343.93176l0 41.322845" fill-rule="evenodd"/><path stroke="#000000" stroke-width="1.0" stroke-linejoin="round" stroke-linecap="butt" d="m453.66666 343.93176l0 41.322845" fill-rule="evenodd"/><path fill="#000000" fill-opacity="0.0" d="m507.32547 344.38846l0 41.322815" fill-rule="evenodd"/><path stroke="#000000" stroke-width="1.0" stroke-linejoin="round" stroke-linecap="butt" d="m507.32547 344.38846l0 41.322815" fill-rule="evenodd"/><path fill="#000000" fill-opacity="0.0" d="m533.14435 344.38846l0 41.322815" fill-rule="evenodd"/><path stroke="#000000" stroke-width="1.0" stroke-linejoin="round" stroke-linecap="butt" d="m533.14435 344.38846l0 41.322815" fill-rule="evenodd"/><path fill="#000000" fill-opacity="0.0" d="m558.7559 343.93176l0 41.322845" fill-rule="evenodd"/><path stroke="#000000" stroke-width="1.0" stroke-linejoin="round" stroke-linecap="butt" d="m558.7559 343.93176l0 41.322845" fill-rule="evenodd"/><path fill="#000000" fill-opacity="0.0" d="m586.2651 344.38846l0 41.322815" fill-rule="evenodd"/><path stroke="#000000" stroke-width="1.0" stroke-linejoin="round" stroke-linecap="butt" d="m586.2651 344.38846l0 41.322815" fill-rule="evenodd"/><path fill="#cfe2f3" d="m322.10498 329.42126l128.12598 0c3.8341675 0 7.5112915 -1.5231018 10.222443 -4.2342834c2.7111511 -2.7111511 4.234253 -6.388275 4.234253 -10.222412l0 -14.456696c0 -7.324219E-4 -5.79834E-4 -0.0013122559 -0.0013122559 -0.0013122559l-157.03806 0.0013122559l0 0c-7.019043E-4 0 -0.0013122559 5.79834E-4 -0.0013122559 0.0013122559l0.0013122559 14.455383l0 0c0 7.9842224 6.4725037 14.456696 14.456696 14.456696z" fill-rule="evenodd"/><path stroke="#000000" stroke-width="1.0" stroke-linejoin="round" stroke-linecap="butt" d="m322.10498 329.42126l128.12598 0c3.8341675 0 7.5112915 -1.5231018 10.222443 -4.2342834c2.7111511 -2.7111511 4.234253 -6.388275 4.234253 -10.222412l0 -14.456696c0 -7.324219E-4 -5.79834E-4 -0.0013122559 -0.0013122559 -0.0013122559l-157.03806 0.0013122559l0 0c-7.019043E-4 0 -0.0013122559 5.79834E-4 -0.0013122559 0.0013122559l0.0013122559 14.455383l0 0c0 7.9842224 6.4725037 14.456696 14.456696 14.456696z" fill-rule="evenodd"/><path fill="#cfe2f3" d="m511.67978 328.9567l128.126 0c3.8341675 0 7.5112305 -1.5231018 10.222412 -4.2342834c2.7111816 -2.7111511 4.234253 -6.3882446 4.234253 -10.222412l0 -14.456696c0 -7.324219E-4 -5.493164E-4 -0.0013122559 -0.0012817383 -0.0013122559l-157.03809 0.0013122559l0 0c-7.019043E-4 0 -0.0012817383 5.79834E-4 -0.0012817383 0.0013122559l0.0012817383 14.455383l0 0c0 7.9842224 6.4725037 14.456696 14.456696 14.456696z" fill-rule="evenodd"/><path stroke="#000000" stroke-width="1.0" stroke-linejoin="round" stroke-linecap="butt" d="m511.67978 328.9567l128.126 0c3.8341675 0 7.5112305 -1.5231018 10.222412 -4.2342834c2.7111816 -2.7111511 4.234253 -6.3882446 4.234253 -10.222412l0 -14.456696c0 -7.324219E-4 -5.493164E-4 -0.0013122559 -0.0012817383 -0.0013122559l-157.03809 0.0013122559l0 0c-7.019043E-4 0 -0.0012817383 5.79834E-4 -0.0012817383 0.0013122559l0.0012817383 14.455383l0 0c0 7.9842224 6.4725037 14.456696 14.456696 14.456696z" fill-rule="evenodd"/><path fill="#ffff00" d="m423.0971 255.95407l-14.902435 3.4419556l0 -6.883911zm-10.818848 -16.959976l-6.788269 9.278564l-7.494751 -4.8675995zm-26.11029 -7.0242767l5.2996826 9.678635l-10.599335 0zm-26.113678 7.0242767l14.286438 4.410965l-7.494751 4.8675995zm-10.81546 16.959976l14.902466 -3.4419556l0 6.883911zm10.81546 16.957764l6.791687 -9.276367l7.494751 4.8676147zm26.113678 7.0264893l-5.299652 -9.67865l10.599335 0zm26.11029 -7.0264893l-14.28302 -4.4087524l7.494751 -4.8676147zm-44.57486 -16.957764c0 -6.6230774 8.266876 -11.992126 18.46457 -11.992126c10.197723 0 18.46457 5.369049 18.46457 11.992126c0 6.6230774 -8.266846 11.992126 -18.46457 11.992126c-10.197693 0 -18.46457 -5.369049 -18.46457 -11.992126z" fill-rule="evenodd"/><path stroke="#000000" stroke-width="2.0" stroke-linejoin="round" stroke-linecap="butt" d="m423.0971 255.95407l-14.902435 3.4419556l0 -6.883911zm-10.818848 -16.959976l-6.788269 9.278564l-7.494751 -4.8675995zm-26.11029 -7.0242767l5.2996826 9.678635l-10.599335 0zm-26.113678 7.0242767l14.286438 4.410965l-7.494751 4.8675995zm-10.81546 16.959976l14.902466 -3.4419556l0 6.883911zm10.81546 16.957764l6.791687 -9.276367l7.494751 4.8676147zm26.113678 7.0264893l-5.299652 -9.67865l10.599335 0zm26.11029 -7.0264893l-14.28302 -4.4087524l7.494751 -4.8676147zm-44.57486 -16.957764c0 -6.6230774 8.266876 -11.992126 18.46457 -11.992126c10.197723 0 18.46457 5.369049 18.46457 11.992126c0 6.6230774 -8.266846 11.992126 -18.46457 11.992126c-10.197693 0 -18.46457 -5.369049 -18.46457 -11.992126z" fill-rule="evenodd"/><path fill="#cfe2f3" d="m417.8177 396.7861l124.36737 0l0 0c16.29242 0 29.500061 6.472473 29.500061 14.456665c0 7.9842224 -13.207642 14.456696 -29.500061 14.456696l-124.36737 0l0 0c-16.29245 0 -29.500092 -6.472473 -29.500092 -14.456696c0 -7.984192 13.207642 -14.456665 29.500092 -14.456665z" fill-rule="evenodd"/><path stroke="#000000" stroke-width="1.0" stroke-linejoin="round" stroke-linecap="butt" d="m417.8177 396.7861l124.36737 0l0 0c16.29242 0 29.500061 6.472473 29.500061 14.456665c0 7.9842224 -13.207642 14.456696 -29.500061 14.456696l-124.36737 0l0 0c-16.29245 0 -29.500092 -6.472473 -29.500092 -14.456696c0 -7.984192 13.207642 -14.456665 29.500092 -14.456665z" fill-rule="evenodd"/><path fill="#cfe2f3" d="m417.81638 426.66928l124.36734 0l0 0c16.29248 0 29.500122 6.4725037 29.500122 14.456696c0 7.9842224 -13.207642 14.456696 -29.500122 14.456696l-124.36734 0l0 0c-16.29245 0 -29.500092 -6.472473 -29.500092 -14.456696c0 -7.984192 13.207642 -14.456696 29.500092 -14.456696z" fill-rule="evenodd"/><path stroke="#000000" stroke-width="1.0" stroke-linejoin="round" stroke-linecap="butt" d="m417.81638 426.66928l124.36734 0l0 0c16.29248 0 29.500122 6.4725037 29.500122 14.456696c0 7.9842224 -13.207642 14.456696 -29.500122 14.456696l-124.36734 0l0 0c-16.29245 0 -29.500092 -6.472473 -29.500092 -14.456696c0 -7.984192 13.207642 -14.456696 29.500092 -14.456696z" fill-rule="evenodd"/><path fill="#cfe2f3" d="m291.5092 455.58267l366.74014 0l0 264.40945l-366.74014 0z" fill-rule="evenodd"/><path stroke="#000000" stroke-width="1.0" stroke-linejoin="round" stroke-linecap="butt" d="m291.5092 455.58267l366.74014 0l0 264.40945l-366.74014 0z" fill-rule="evenodd"/><path fill="#cfe2f3" d="m249.24147 546.52234l0 -40.661438l0 0c0 -5.6050415 2.226593 -10.98053 6.1899567 -14.943909c3.963379 -3.9633484 9.338867 -6.189972 14.943909 -6.189972l21.13385 0c3.9672852E-4 0 7.019043E-4 3.3569336E-4 7.019043E-4 7.019043E-4l-7.019043E-4 82.92847l0 0c0 3.6621094E-4 -3.0517578E-4 6.713867E-4 -7.019043E-4 6.713867E-4l-21.133148 -6.713867E-4l0 0c-11.6719055 0 -21.133865 -9.461975 -21.133865 -21.13385z" fill-rule="evenodd"/><path stroke="#000000" stroke-width="1.0" stroke-linejoin="round" stroke-linecap="butt" d="m249.24147 546.52234l0 -40.661438l0 0c0 -5.6050415 2.226593 -10.98053 6.1899567 -14.943909c3.963379 -3.9633484 9.338867 -6.189972 14.943909 -6.189972l21.13385 0c3.9672852E-4 0 7.019043E-4 3.3569336E-4 7.019043E-4 7.019043E-4l-7.019043E-4 82.92847l0 0c0 3.6621094E-4 -3.0517578E-4 6.713867E-4 -7.019043E-4 6.713867E-4l-21.133148 -6.713867E-4l0 0c-11.6719055 0 -21.133865 -9.461975 -21.133865 -21.13385z" fill-rule="evenodd"/><path fill="#cfe2f3" d="m700.5171 505.8609l0 40.661438l0 0c0 5.6050415 -2.2266235 10.980469 -6.1900024 14.943848c-3.963379 3.963379 -9.338867 6.1900024 -14.943909 6.1900024l-21.13385 0c-3.6621094E-4 0 -6.713867E-4 -3.0517578E-4 -6.713867E-4 -7.324219E-4l6.713867E-4 -82.92844l0 0c0 -3.6621094E-4 3.0517578E-4 -6.713867E-4 7.324219E-4 -6.713867E-4l21.133118 6.713867E-4l0 0c11.671936 0 21.133911 9.461975 21.133911 21.13388z" fill-rule="evenodd"/><path stroke="#000000" stroke-width="1.0" stroke-linejoin="round" stroke-linecap="butt" d="m700.5171 505.8609l0 40.661438l0 0c0 5.6050415 -2.2266235 10.980469 -6.1900024 14.943848c-3.963379 3.963379 -9.338867 6.1900024 -14.943909 6.1900024l-21.13385 0c-3.6621094E-4 0 -6.713867E-4 -3.0517578E-4 -6.713867E-4 -7.324219E-4l6.713867E-4 -82.92844l0 0c0 -3.6621094E-4 3.0517578E-4 -6.713867E-4 7.324219E-4 -6.713867E-4l21.133118 6.713867E-4l0 0c11.671936 0 21.133911 9.461975 21.133911 21.13388z" fill-rule="evenodd"/><path fill="#cfe2f3" d="m184.04462 498.6483l65.19685 0l0 55.08664l-65.19685 0z" fill-rule="evenodd"/><path stroke="#000000" stroke-width="1.0" stroke-linejoin="round" stroke-linecap="butt" d="m184.04462 498.6483l65.19685 0l0 55.08664l-65.19685 0z" fill-rule="evenodd"/><path fill="#cfe2f3" d="m53.650917 443.56168l65.19685 0l0 55.08661l-65.19685 0z" fill-rule="evenodd"/><path stroke="#000000" stroke-width="1.0" stroke-linejoin="round" stroke-linecap="butt" d="m53.650917 443.56168l65.19685 0l0 55.08661l-65.19685 0z" fill-rule="evenodd"/><path fill="#cfe2f3" d="m118.84777 498.6483l65.196846 0l0 55.08664l-65.196846 0z" fill-rule="evenodd"/><path stroke="#000000" stroke-width="1.0" stroke-linejoin="round" stroke-linecap="butt" d="m118.84777 498.6483l65.196846 0l0 55.08664l-65.196846 0z" fill-rule="evenodd"/><path fill="#cfe2f3" d="m60.536747 505.53412l51.425198 0l0 41.31494l-51.425198 0z" fill-rule="evenodd"/><path fill="#d8e7f5" d="m53.650917 498.6483l65.19685 0l-6.885826 6.8858337l-51.425198 0z" fill-rule="evenodd"/><path fill="#a5b4c2" d="m53.650917 553.7349l6.88583 -6.8858643l51.425198 0l6.885826 6.8858643z" fill-rule="evenodd"/><path fill="#e2edf7" d="m53.650917 498.6483l6.88583 6.8858337l0 41.31494l-6.88583 6.8858643z" fill-rule="evenodd"/><path fill="#7c8791" d="m118.84777 498.6483l0 55.08664l-6.885826 -6.8858643l0 -41.31494z" fill-rule="evenodd"/><path fill="#000000" fill-opacity="0.0" d="m53.650917 498.6483l65.19685 0l0 55.08664l-65.19685 0zm6.88583 6.8858337l51.425198 0l0 41.31494l-51.425198 0zm-6.88583 -6.8858337l6.88583 6.8858337m-6.88583 48.200806l6.88583 -6.8858643m58.311024 -48.200775l-6.885826 6.8858337m6.885826 48.200806l-6.885826 -6.8858643" fill-rule="evenodd"/><path stroke="#000000" stroke-width="1.0" stroke-linejoin="round" stroke-linecap="butt" d="m53.650917 498.6483l65.19685 0l0 55.08664l-65.19685 0zm6.88583 6.8858337l51.425198 0l0 41.31494l-51.425198 0zm-6.88583 -6.8858337l6.88583 6.8858337m-6.88583 48.200806l6.88583 -6.8858643m58.311024 -48.200775l-6.885826 6.8858337m6.885826 48.200806l-6.885826 -6.8858643" fill-rule="evenodd"/><path fill="#cfe2f3" d="m53.650917 332.4567l65.19685 0l0 55.08661l-65.19685 0z" fill-rule="evenodd"/><path stroke="#000000" stroke-width="1.0" stroke-linejoin="round" stroke-linecap="butt" d="m53.650917 332.4567l65.19685 0l0 55.08661l-65.19685 0z" fill-rule="evenodd"/><path fill="#cfe2f3" d="m53.650917 388.47507l65.19685 0l0 55.08661l-65.19685 0z" fill-rule="evenodd"/><path stroke="#000000" stroke-width="1.0" stroke-linejoin="round" stroke-linecap="butt" d="m53.650917 388.47507l65.19685 0l0 55.08661l-65.19685 0z" fill-rule="evenodd"/><path fill="#cfe2f3" d="m765.7139 498.64697l-65.19684 0l0 55.08661l65.19684 0z" fill-rule="evenodd"/><path stroke="#000000" stroke-width="1.0" stroke-linejoin="round" stroke-linecap="butt" d="m765.7139 498.64697l-65.19684 0l0 55.08661l65.19684 0z" fill-rule="evenodd"/><path fill="#cfe2f3" d="m896.1076 443.56036l-65.19684 0l0 55.08661l65.19684 0z" fill-rule="evenodd"/><path stroke="#000000" stroke-width="1.0" stroke-linejoin="round" stroke-linecap="butt" d="m896.1076 443.56036l-65.19684 0l0 55.08661l65.19684 0z" fill-rule="evenodd"/><path fill="#cfe2f3" d="m830.91077 498.64697l-65.19684 0l0 55.08661l65.19684 0z" fill-rule="evenodd"/><path stroke="#000000" stroke-width="1.0" stroke-linejoin="round" stroke-linecap="butt" d="m830.91077 498.64697l-65.19684 0l0 55.08661l65.19684 0z" fill-rule="evenodd"/><path fill="#cfe2f3" d="m889.2218 505.5328l-51.425232 0l0 41.314972l51.425232 0z" fill-rule="evenodd"/><path fill="#d8e7f5" d="m896.1076 498.64697l-65.19684 0l6.885803 6.8858337l51.425232 0z" fill-rule="evenodd"/><path fill="#a5b4c2" d="m896.1076 553.7336l-6.885803 -6.885803l-51.425232 0l-6.885803 6.885803z" fill-rule="evenodd"/><path fill="#e2edf7" d="m896.1076 498.64697l-6.885803 6.8858337l0 41.314972l6.885803 6.885803z" fill-rule="evenodd"/><path fill="#7c8791" d="m830.91077 498.64697l0 55.08661l6.885803 -6.885803l0 -41.314972z" fill-rule="evenodd"/><path fill="#000000" fill-opacity="0.0" d="m896.1076 498.64697l-65.19684 0l0 55.08661l65.19684 0zm-6.885803 6.8858337l-51.425232 0l0 41.314972l51.425232 0zm6.885803 -6.8858337l-6.885803 6.8858337m6.885803 48.200775l-6.885803 -6.885803m-58.311035 -48.200806l6.885803 6.8858337m-6.885803 48.200775l6.885803 -6.885803" fill-rule="evenodd"/><path stroke="#000000" stroke-width="1.0" stroke-linejoin="round" stroke-linecap="butt" d="m896.1076 498.64697l-65.19684 0l0 55.08661l65.19684 0zm-6.885803 6.8858337l-51.425232 0l0 41.314972l51.425232 0zm6.885803 -6.8858337l-6.885803 6.8858337m6.885803 48.200775l-6.885803 -6.885803m-58.311035 -48.200806l6.885803 6.8858337m-6.885803 48.200775l6.885803 -6.885803" fill-rule="evenodd"/><path fill="#cfe2f3" d="m896.1076 388.47375l-65.19684 0l0 55.08661l65.19684 0z" fill-rule="evenodd"/><path stroke="#000000" stroke-width="1.0" stroke-linejoin="round" stroke-linecap="butt" d="m896.1076 388.47375l-65.19684 0l0 55.08661l65.19684 0z" fill-rule="evenodd"/><path fill="#cfe2f3" d="m896.1076 334.4239l-65.19684 0l0 55.08661l65.19684 0z" fill-rule="evenodd"/><path stroke="#000000" stroke-width="1.0" stroke-linejoin="round" stroke-linecap="butt" d="m896.1076 334.4239l-65.19684 0l0 55.08661l65.19684 0z" fill-rule="evenodd"/><path fill="#cfe2f3" d="m149.85564 239.63518l0 0c0 50.749313 -28.4775 91.889755 -63.606293 91.889755c-35.128788 0 -63.6063 -41.14044 -63.6063 -91.889755l31.803148 0c0 33.18492 14.238758 60.086594 31.80315 60.086594c17.564392 0 31.803146 -26.901672 31.803146 -60.086594z" fill-rule="evenodd"/><path stroke="#000000" stroke-width="1.0" stroke-linejoin="round" stroke-linecap="butt" d="m149.85564 239.63518l0 0c0 50.749313 -28.4775 91.889755 -63.606293 91.889755c-35.128788 0 -63.6063 -41.14044 -63.6063 -91.889755l31.803148 0c0 33.18492 14.238758 60.086594 31.80315 60.086594c17.564392 0 31.803146 -26.901672 31.803146 -60.086594z" fill-rule="evenodd"/><path fill="#cfe2f3" d="m927.1155 241.49869l0 0c0 50.74933 -28.477478 91.88977 -63.606262 91.88977c-35.128845 0 -63.606323 -41.14044 -63.606323 -91.88977l31.803162 0c0 33.184906 14.2387085 60.08661 31.803162 60.08661c17.564392 0 31.8031 -26.901703 31.8031 -60.08661z" fill-rule="evenodd"/><path stroke="#000000" stroke-width="1.0" stroke-linejoin="round" stroke-linecap="butt" d="m927.1155 241.49869l0 0c0 50.74933 -28.477478 91.88977 -63.606262 91.88977c-35.128845 0 -63.606323 -41.14044 -63.606323 -91.88977l31.803162 0c0 33.184906 14.2387085 60.08661 31.803162 60.08661c17.564392 0 31.8031 -26.901703 31.8031 -60.08661z" fill-rule="evenodd"/></g></svg>